<svg xmlns="http://www.w3.org/2000/svg" width="512" height="512" viewBox="0 0 512 512">
  <g id="Group_196" data-name="Group 196" transform="translate(-2438 701)">
    <rect id="Rectangle_85" data-name="Rectangle 85" width="512" height="512" rx="50" transform="translate(2438 -701)" fill="#040320"/>
    <g id="Group_195" data-name="Group 195" transform="translate(185.14 -264.362)">
      <path id="Path_4" data-name="Path 4" d="M265.758,63H236.173L208.985,1.6H131.609L104.507,63H134.1L57.82,235.794H28.231L9,279.369H89.151l17.487-43.575h29.588l4.327-10.787H258.021l4.33,10.787H232.766l17.487,43.575H332l-19.3-43.575h29.585ZM163.646,167.469,199.29,78.656l35.641,88.813Z" transform="translate(2348.78 -321.125)" fill="#ff00f5"/>
      <path id="Path_13" data-name="Path 13" d="M256.76,63H227.175L199.987,1.6H122.611L95.509,63H125.1l-76.276,172.8H19.233L0,279.369H80.153L97.64,235.794h29.588l4.327-10.787H249.023l4.33,10.787H223.768l17.487,43.575H323l-19.3-43.575h29.585ZM154.648,167.469l35.644-88.813,35.641,88.813Z" transform="translate(2326.657 -321.125)" fill="#02f9ff"/>
      <path id="Path_22" data-name="Path 22" d="M258.56,63H228.975L201.787,1.6H124.411L97.309,63H126.9l-76.276,172.8H21.033L1.8,279.369H81.953L99.44,235.794h29.588l4.327-10.787H250.823l4.33,10.787H225.568l17.487,43.575H324.8l-19.3-43.575h29.585ZM156.448,167.469l35.644-88.813,35.641,88.813Z" transform="translate(2331.083 -321.125)" fill="#aeff02"/>
      <path id="Path_31" data-name="Path 31" d="M262.159,63H232.574L205.386,1.6H128.01L100.908,63H130.5l-76.276,172.8H24.632L5.4,279.369H85.552l17.487-43.575h29.588l4.327-10.787H254.422l4.33,10.787H229.167l17.487,43.575H328.4l-19.3-43.575h29.585ZM160.047,167.469l35.644-88.813,35.641,88.813Z" transform="translate(2339.931 -321.125)" fill="#fff"/>
    </g>
  </g>
</svg>
