<svg xmlns="http://www.w3.org/2000/svg" fill="none" viewBox="0 0 369 349"><path d="M184 0C82.499 0 0 84.895 0 189.345c0 53.178 22.015 104.33 60.252 140.1l4.287 3.935.116-.119C77.4 343.396 93.159 349 109.496 349c40.439 0 73.229-33.863 73.229-75.356 0-14.428-3.939-28.14-11.355-40.182 7.416-12.043 11.355-25.874 11.355-40.183 0-.953.001-2.027-.115-2.98-3.476 2.146-7.3 4.173-11.587 5.842-.464 9.539-2.897 18.72-7.184 27.066-13.789-15.739-33.602-24.92-54.343-24.92-23.637 0-46 11.805-59.672 31.717l-2.434 3.458 2.55 3.696c13.788 19.674 36.035 31.478 59.556 31.478 12.514 0 24.68-3.339 35.456-9.42 3.476-2.027 6.836-4.292 10.081-6.915l-.116-.358c-1.159-2.981-4.055-7.273-6.025-9.897-3.129 2.624-6.489 5.008-9.965 6.916-8.922 5.008-19.003 7.75-29.431 7.75-18.539 0-36.035-8.585-47.738-23.25 11.703-14.666 29.2-23.251 47.738-23.251 18.539 0 36.036 8.585 47.738 23.251 1.391 1.788 4.403 5.961 6.721 10.254 4.75 9.181 7.299 19.316 7.299 29.928 0 34.935-27.692 63.433-61.642 63.433-15.41 0-30.126-5.843-41.481-16.455l-1.854-1.669c-34.76-33.505-54.69-80.603-54.69-129.608 0-97.773 77.4-177.422 172.413-177.422 95.129 0 172.413 79.65 172.413 177.422 0 48.647-18.771 94.076-52.836 127.819-.579.596-1.159 1.193-1.738 1.67l-.116.119-.232.238c-.811.835-1.738 1.67-2.665 2.504l-.463.358c-11.124 9.658-25.26 15.024-39.743 15.024-34.066 0-61.643-28.498-61.643-63.433 0-5.485.696-10.97 2.086-16.216 0-.12 0-.119.116-.239 1.159-4.65 3.012-9.181 5.214-13.473 3.36-6.558 7.995-13.116 14.02-18.124 11.124-9.777 25.375-15.381 40.323-15.381 18.539 0 36.035 8.585 47.738 23.251-11.703 14.665-29.199 23.25-47.738 23.25-14.484 0-28.388-5.365-39.396-14.666-2.317 3.339-4.403 6.916-5.909 10.374 12.745 10.373 28.735 16.216 45.305 16.216 23.637 0 46-11.804 59.672-31.717l2.433-3.457-2.896-4.174c-13.789-19.435-35.92-31.001-59.209-31.001-20.741 0-40.555 9.181-54.343 24.92-4.287-8.227-6.72-17.289-7.184-26.708v-1.193-2.265-1.669-.835c0-.596 0-1.073.116-1.669v-.239c0-.596.116-1.073.116-1.669.116-.835.116-1.669.232-2.385 0-.357.115-.834.115-1.192.696-4.292 1.739-8.227 2.897-11.804.927-2.504 1.854-4.889 3.013-7.154.232-.477.463-.835.695-1.193.116-.238.232-.596.463-.834l1.043-1.789a79.62 79.62 0 014.983-7.273c11.471-14.547 28.851-23.489 47.854-23.489 9.733 0 19.234 2.384 27.808 6.796-8.69 24.801-31.98 41.851-58.05 41.851a61.738 61.738 0 01-16.917-2.384c-1.159 3.457-2.086 7.273-2.665 11.565 6.373 1.789 12.977 2.743 19.698 2.743 32.675 0 61.642-22.536 70.564-54.848l1.274-4.531-3.707-2.385c-11.356-7.035-24.449-10.85-37.774-10.85-18.539 0-35.803 7.273-49.012 19.316 2.085-7.154 3.244-14.547 3.244-22.297 0-21.7-9.038-42.328-24.912-56.636l-3.939-3.578-3.824 3.458c-15.874 14.309-25.028 35.055-25.028 56.756 0 7.631 1.159 15.143 3.245 22.297-13.094-12.162-30.474-19.435-49.013-19.435a71.727 71.727 0 00-37.773 10.731L68.13 130.8l1.275 4.77c8.921 32.193 37.889 54.609 70.448 54.609 8.806 0 17.496-1.669 25.607-4.769.232-.119.579-.239.811-.358 1.391-.596 2.897-1.192 4.287-1.907 4.287-2.027 7.995-4.412 10.66-6.201 1.043-.715 1.97-1.431 3.013-2.265 1.043.834 1.97 1.55 3.012 2.265-1.158 5.247-1.622 10.612-1.622 16.097 0 14.308 3.94 28.139 11.355 40.182-7.415 12.043-11.355 25.874-11.355 40.182 0 41.613 32.907 75.357 73.229 75.357 17.381 0 34.182-6.32 47.391-17.886l.579-.596c.927-.835 1.854-1.788 2.781-2.623.232-.119.348-.358.579-.477.58-.596 1.159-1.192 1.854-1.788 36.383-36.009 56.313-84.419 56.313-136.405C368 84.895 285.501 0 184 0zm-44.378 178.375c-25.954 0-49.244-17.05-58.05-41.851 8.574-4.412 18.075-6.797 27.808-6.797 26.071 0 49.245 16.932 57.935 41.852a59.938 59.938 0 01-27.693 6.796zm49.476-25.516c-1.39 1.908-2.781 3.696-4.403 5.365l-.695.716c-11.007-11.804-17.264-27.543-17.264-43.998 0-16.454 6.257-32.193 17.264-43.997 11.008 11.804 17.265 27.543 17.265 43.997.115 13.712-4.172 26.828-12.167 37.917z" fill="#2D2D2D"></path></svg>