<svg xmlns="http://www.w3.org/2000/svg" fill="none" viewBox="0 0 106 99"><path d="M52.95 0C23.74 0 0 24.116 0 53.711c0 15.085 6.335 29.595 17.339 39.742l1.234 1.116.033-.034A20.917 20.917 0 0031.51 99c11.637 0 21.073-9.606 21.073-21.376 0-4.093-1.133-7.982-3.267-11.398a21.449 21.449 0 003.267-11.399c0-.27 0-.575-.033-.846-1 .61-2.1 1.184-3.334 1.658a18.535 18.535 0 01-2.068 7.678c-3.968-4.465-9.67-7.07-15.638-7.07-6.802 0-13.238 3.35-17.172 8.998l-.7.98.733 1.049c3.968 5.58 10.37 8.93 17.139 8.93 3.601 0 7.102-.948 10.203-2.673a23.07 23.07 0 002.901-1.962l-.033-.1c-.334-.846-1.167-2.064-1.734-2.808-.9.744-1.867 1.42-2.868 1.962a17.476 17.476 0 01-8.47 2.198c-5.334 0-10.369-2.435-13.737-6.596 3.368-4.16 8.403-6.595 13.738-6.595 5.335 0 10.37 2.435 13.738 6.595a23.2 23.2 0 011.934 2.91 18.163 18.163 0 012.1 8.489c0 9.91-7.969 17.994-17.739 17.994-4.434 0-8.67-1.658-11.937-4.668l-.533-.473C9.07 80.972 3.334 67.646 3.334 53.71c0-27.735 22.274-50.329 49.616-50.329 27.375 0 49.616 22.594 49.616 50.329 0 13.8-5.402 26.686-15.205 36.258-.167.17-.334.339-.5.474l-.034.034-.066.067c-.234.237-.5.474-.767.71l-.134.102c-3.2 2.74-7.269 4.262-11.437 4.262-9.803 0-17.739-8.084-17.739-17.994 0-1.556.2-3.112.6-4.6 0-.034 0-.034.034-.068.334-1.319.867-2.604 1.5-3.822.968-1.86 2.301-3.72 4.035-5.14 3.201-2.774 7.302-4.364 11.604-4.364 5.335 0 10.37 2.435 13.737 6.595-3.367 4.16-8.402 6.596-13.737 6.596-4.168 0-8.17-1.522-11.337-4.16-.667.947-1.267 1.962-1.7 2.942a20.872 20.872 0 0013.037 4.6c6.802 0 13.237-3.348 17.172-8.997l.7-.98-.834-1.184c-3.968-5.514-10.336-8.794-17.038-8.794-5.969 0-11.67 2.604-15.638 7.069a18.084 18.084 0 01-2.068-7.577v-.338-.642-.474-.237c0-.169 0-.304.034-.473v-.068c0-.17.033-.304.033-.474.033-.236.033-.473.067-.676 0-.101.033-.237.033-.338.2-1.218.5-2.334.834-3.349.266-.71.533-1.386.866-2.03.067-.134.134-.236.2-.337.034-.068.067-.17.134-.237l.3-.507c.433-.71.934-1.421 1.434-2.064 3.3-4.126 8.302-6.663 13.77-6.663 2.802 0 5.536.677 8.003 1.928-2.5 7.035-9.203 11.872-16.705 11.872-1.667 0-3.301-.237-4.868-.676-.334.98-.6 2.063-.767 3.28 1.834.508 3.734.778 5.668.778 9.403 0 17.74-6.392 20.307-15.558l.367-1.285-1.067-.677a20.897 20.897 0 00-10.87-3.078c-5.336 0-10.304 2.063-14.105 5.48.6-2.03.934-4.127.934-6.325 0-6.156-2.601-12.008-7.17-16.066L53.05 15.49l-1.1.98c-4.568 4.06-7.203 9.945-7.203 16.1 0 2.165.334 4.296.934 6.326-3.768-3.45-8.77-5.514-14.104-5.514a20.864 20.864 0 00-10.87 3.044l-1.1.677.366 1.353c2.567 9.132 10.903 15.49 20.273 15.49 2.534 0 5.035-.473 7.369-1.352.067-.034.167-.068.233-.102.4-.169.834-.338 1.234-.54 1.234-.576 2.3-1.252 3.068-1.76.3-.203.567-.405.867-.642.3.236.566.44.867.642-.334 1.489-.467 3.01-.467 4.567 0 4.058 1.133 7.982 3.267 11.398a21.449 21.449 0 00-3.267 11.398c0 11.804 9.47 21.376 21.073 21.376 5.002 0 9.837-1.792 13.638-5.073l.166-.17c.267-.236.534-.507.8-.743.067-.034.1-.102.167-.136.167-.169.334-.338.534-.507C100.265 82.088 106 68.356 106 53.609 105.9 24.116 82.16 0 52.95 0zM40.18 50.6c-7.47 0-14.172-4.837-16.706-11.873a17.687 17.687 0 018.003-1.928c7.502 0 14.17 4.803 16.671 11.872-2.434 1.286-5.168 1.928-7.969 1.928zm14.237-7.239c-.4.541-.8 1.049-1.267 1.522l-.2.203a18.175 18.175 0 01-4.968-12.48c0-4.668 1.8-9.133 4.968-12.481a18.175 18.175 0 014.968 12.48c.034 3.924-1.2 7.61-3.5 10.756z" fill="url(#paint0_linear)"></path><defs><linearGradient id="paint0_linear" x1="14.09" y1="14.31" x2="93.861" y2="92.951" gradientUnits="userSpaceOnUse"><stop offset=".005" stop-color="#BB8590"></stop><stop offset=".214" stop-color="#7B5960"></stop><stop offset=".558" stop-color="#BB8590"></stop><stop offset=".558" stop-color="#7B5960"></stop><stop offset=".75" stop-color="#BB8590"></stop><stop offset="1" stop-color="#7B5960"></stop></linearGradient></defs></svg>