<svg xmlns="http://www.w3.org/2000/svg" fill="none" viewBox="0 0 104 104"><path d="M99.766 54.498L97.268 52l2.707-2.74.034-.035a14.506 14.506 0 003.991-9.99c0-8.014-6.524-14.501-14.505-14.501a14.352 14.352 0 00-10.306 4.301l2.463 2.463a10.976 10.976 0 017.843-3.295c6.073 0 11.035 4.96 11.035 11.031a11 11 0 01-3.02 7.597l-2.706 2.706L80.16 34.863l-.937-.936-2.464-2.463-4.233-4.232 2.22-2.22.035-.035.521-.52.035-.035c2.533-2.706 3.956-6.245 3.956-9.922 0-8.013-6.524-14.5-14.506-14.5a14.49 14.49 0 00-9.855 3.85l-.416.417-2.499 2.498-2.741-2.741-.035-.035A14.453 14.453 0 0039.247 0c-7.981 0-14.505 6.522-14.505 14.5 0 3.92 1.527 7.563 4.303 10.303l2.464-2.463a10.97 10.97 0 01-3.297-7.84c0-6.07 4.963-11.031 11.035-11.031 2.846 0 5.553 1.075 7.6 3.018l2.707 2.706-15.616 15.61-2.464 2.463-3.4 3.4-.833.832-2.221-2.22-.035-.034c-.07-.07-.104-.14-.174-.174-.104-.104-.208-.243-.346-.347l-.035-.034c-2.707-2.533-6.247-3.955-9.925-3.955C6.49 24.734 0 31.255 0 39.234a14.48 14.48 0 003.852 9.852l.416.416L6.767 52l-2.742 2.74-.034.035A14.443 14.443 0 000 64.765c0 7.98 6.524 14.501 14.505 14.501 3.921 0 7.565-1.526 10.306-4.301l-2.463-2.463a10.918 10.918 0 01-7.843 3.295c-6.073 0-11.035-4.96-11.035-11.031 0-2.845 1.076-5.55 3.02-7.597l2.706-2.706L22.348 67.61l1.839 1.839.624.624 2.464 2.463 4.234 4.233-2.221 2.22-.035.034-.52.52-.035.035c-2.533 2.706-3.956 6.245-3.956 9.922 0 7.978 6.524 14.5 14.505 14.5a14.49 14.49 0 009.855-3.851l.417-.416 2.498-2.498 2.742 2.706.035.035a14.453 14.453 0 009.993 3.989c7.982 0 14.506-6.521 14.506-14.5 0-3.92-1.527-7.562-4.303-10.303l-2.464 2.463a10.969 10.969 0 013.297 7.84c0 6.07-4.963 11.031-11.036 11.031a11.006 11.006 0 01-7.6-3.018l-2.706-2.706 14.714-14.708.902-.867 2.464-2.463.867-.867 3.331-3.33 2.221 2.22.035.034.52.52.035.035c2.707 2.533 6.247 3.955 9.925 3.955C97.476 79.3 104 72.779 104 64.8c0-3.643-1.353-7.147-3.852-9.852l-.382-.451zM52.017 11.656L65.17 24.803l2.464-2.463L54.481 9.193l2.43-2.428.416-.382a11.016 11.016 0 017.46-2.914c6.073 0 11.035 4.96 11.035 11.031 0 2.81-1.04 5.481-2.984 7.528l-.034.035-.382.381-1.458 1.457-.867.902-3.332 3.33L54.69 40.171l-.277.277c-.66.59-1.492.937-2.395.937-.902 0-1.77-.347-2.429-.937l-.07-.07-13.116-13.112 15.615-15.61zM11.66 52L24.81 38.853l-2.463-2.463L9.196 49.537l-2.43-2.428-.381-.416A11.03 11.03 0 013.47 39.2c0-6.071 4.962-11.032 11.035-11.032 2.811 0 5.483 1.04 7.53 2.983l.035.035.278.278.104.104 1.457 1.457 4.234 4.232 12.041 12.037.278.278c.59.659.902 1.491.902 2.393a3.66 3.66 0 01-.937 2.429L27.241 67.576 11.66 52zm40.357 40.31L38.865 79.162l-2.463 2.463 13.152 13.147-2.43 2.429-.416.381a11.037 11.037 0 01-7.495 2.914c-6.073 0-11.036-4.96-11.036-11.031 0-2.81 1.042-5.481 2.985-7.528l.035-.034c.138-.14.242-.278.381-.382l2.36-2.359 2.464-2.463.867-.867 12.042-12.037.277-.278a3.543 3.543 0 012.395-.902c.902 0 1.77.347 2.429.937l13.186 13.182-15.58 15.576zm18.045-18.04L56.945 61.159l-.139-.139a6.985 6.985 0 00-4.789-1.873c-1.77 0-3.47.66-4.788 1.873L33.938 74.271l-4.234-4.232 13.117-13.113.14-.139c1.214-1.283 1.873-2.983 1.873-4.787 0-1.77-.66-3.469-1.874-4.787L29.704 33.927l4.234-4.232 13.117 13.112.139.139a6.985 6.985 0 004.789 1.873c1.77 0 3.47-.659 4.788-1.873l13.291-13.251 4.234 4.232-13.118 13.112-.138.14a6.98 6.98 0 00-1.874 4.786c0 1.77.66 3.47 1.874 4.787L74.296 70.04l-4.234 4.232zm19.468 1.527c-2.811 0-5.483-1.04-7.53-2.983l-.035-.035c-.14-.139-.278-.243-.382-.381l-2.36-2.36-2.464-2.462L63.85 54.67l-.069-.07-.208-.207c-.59-.66-.937-1.492-.937-2.394 0-.902.347-1.77.937-2.428L76.759 36.39 92.375 52 79.223 65.147l2.464 2.463 13.152-13.147 2.429 2.428.382.416a11.01 11.01 0 012.915 7.459c0 6.07-4.963 11.031-11.035 11.031z" fill="url(#paint0_linear)"></path><defs><linearGradient id="paint0_linear" x1="23" y1="18.524" x2="85.824" y2="81.242" gradientUnits="userSpaceOnUse"><stop stop-color="#799BE0"></stop><stop offset=".344" stop-color="#25488E"></stop><stop offset=".344" stop-color="#153C8B"></stop><stop offset=".661" stop-color="#6087D8"></stop><stop offset=".661" stop-color="#2E57A9"></stop><stop offset=".87" stop-color="#7699E2"></stop><stop offset="1" stop-color="#1B469D"></stop></linearGradient></defs></svg>