<svg xmlns="http://www.w3.org/2000/svg" fill="none" viewBox="0 0 378 378"><path d="M362.325 197.987l-9.074-9.074 9.83-9.956.126-.126a52.71 52.71 0 0014.493-36.296c0-29.112-23.693-52.678-52.679-52.678-14.241 0-27.474 5.545-37.43 15.627l8.948 8.948c7.562-7.688 17.77-11.973 28.482-11.973 22.055 0 40.076 18.022 40.076 40.076 0 10.335-3.906 20.165-10.964 27.6l-9.83 9.83-53.183-53.309-3.403-3.403-8.947-8.947-15.376-15.376 8.066-8.065.126-.126 1.891-1.89.126-.127c9.199-9.83 14.367-22.684 14.367-36.043C287.97 23.567 264.277 0 235.291 0c-13.233 0-25.962 4.915-35.792 13.989l-1.512 1.512-9.074 9.074-9.956-9.956-.126-.126C169.001 5.167 156.146 0 142.535 0c-28.986 0-52.678 23.693-52.678 52.679 0 14.24 5.545 27.474 15.627 37.43l8.948-8.948c-7.688-7.562-11.973-17.77-11.973-28.482 0-22.055 18.022-40.076 40.076-40.076 10.335 0 20.165 3.906 27.6 10.964l9.83 9.83-56.712 56.712-8.947 8.948-12.351 12.35-3.025 3.025-8.065-8.066-.126-.126c-.252-.252-.378-.504-.63-.63-.378-.378-.756-.882-1.26-1.26l-.127-.126c-9.83-9.2-22.684-14.367-36.043-14.367C23.567 89.857 0 113.549 0 142.535c0 13.233 4.915 25.962 13.989 35.792l1.512 1.512 9.074 9.074-9.956 9.956-.126.126C5.167 208.825 0 221.68 0 235.291c0 28.986 23.693 52.679 52.679 52.679 14.24 0 27.474-5.546 37.43-15.628l-8.948-8.948c-7.562 7.688-17.644 11.973-28.482 11.973-22.055 0-40.076-18.022-40.076-40.076 0-10.335 3.906-20.165 10.964-27.6l9.83-9.83 47.764 47.764 6.68 6.679 2.268 2.269 8.947 8.947 15.376 15.376-8.066 8.065-.126.126-1.89 1.891-.127.126c-9.2 9.83-14.366 22.684-14.366 36.043 0 28.986 23.692 52.679 52.678 52.679 13.233 0 25.962-4.915 35.792-13.989l1.512-1.512 9.074-9.074 9.956 9.83.126.126c9.83 9.326 22.685 14.493 36.296 14.493 28.986 0 52.679-23.693 52.679-52.679 0-14.241-5.546-27.474-15.628-37.43l-8.948 8.948c7.688 7.562 11.973 17.77 11.973 28.482 0 22.055-18.022 40.076-40.076 40.076-10.335 0-20.165-3.906-27.6-10.964l-9.83-9.83 53.435-53.435 3.277-3.151 8.947-8.947 3.151-3.151 12.099-12.099 8.065 8.066.126.126 1.891 1.891.126.126c9.83 9.199 22.684 14.367 36.043 14.367 28.986 0 52.679-23.693 52.679-52.679 0-13.233-4.915-25.962-13.989-35.792l-1.386-1.638zM188.913 42.345l47.764 47.764 8.948-8.948-47.764-47.764 8.822-8.822 1.512-1.386c7.435-6.806 17.013-10.586 27.096-10.586 22.054 0 40.076 18.021 40.076 40.076 0 10.208-3.781 19.912-10.838 27.348l-.126.126-1.387 1.386-5.293 5.293-3.15 3.277-12.099 12.098-43.857 43.731-1.008 1.008c-2.395 2.143-5.419 3.403-8.696 3.403s-6.427-1.26-8.822-3.403l-.252-.252-47.638-47.637 56.712-56.712zM42.345 188.913l47.764-47.764-8.948-8.948-47.764 47.764-8.822-8.822-1.386-1.512c-6.806-7.435-10.586-17.013-10.586-27.222 0-22.054 18.021-40.076 40.076-40.076 10.208 0 19.912 3.781 27.347 10.838l.127.126 1.008 1.009.378.378 5.293 5.293 15.375 15.375 43.731 43.731 1.008 1.008c2.143 2.395 3.277 5.419 3.277 8.696s-1.26 6.427-3.403 8.822l-47.89 47.89-56.585-56.586zm146.568 146.442l-47.764-47.764-8.948 8.948 47.764 47.764-8.822 8.822-1.512 1.386c-7.436 6.806-17.013 10.586-27.222 10.586-22.054 0-40.076-18.021-40.076-40.076 0-10.208 3.781-19.912 10.838-27.348l.126-.126c.504-.504.883-1.008 1.387-1.386l8.569-8.57 8.948-8.947 3.151-3.151 43.731-43.731 1.008-1.008c2.395-2.143 5.419-3.277 8.696-3.277s6.427 1.26 8.822 3.403l47.89 47.89-56.586 56.585zm65.534-65.533l-47.638-47.638-.504-.504c-4.789-4.411-10.839-6.806-17.392-6.806-6.427 0-12.603 2.395-17.392 6.806l-48.268 48.142-15.375-15.375 47.638-47.638.504-.504c4.411-4.663 6.806-10.839 6.806-17.392 0-6.427-2.395-12.603-6.806-17.392l-48.142-48.268 15.375-15.375 47.638 47.638.504.504c4.789 4.411 10.839 6.806 17.392 6.806 6.427 0 12.603-2.395 17.392-6.806l48.268-48.142 15.375 15.375-47.638 47.638-.504.504c-4.411 4.789-6.806 10.839-6.806 17.392 0 6.427 2.395 12.603 6.806 17.392l48.142 48.268-15.375 15.375zm70.7 5.545c-10.208 0-19.912-3.781-27.347-10.838l-.127-.126c-.504-.504-1.008-.883-1.386-1.387l-8.57-8.569-8.947-8.948-46.882-46.882-.252-.252-.756-.756c-2.143-2.395-3.403-5.419-3.403-8.696s1.26-6.427 3.403-8.822l47.89-47.89 56.711 56.712-47.764 47.764 8.948 8.948 47.764-47.764 8.822 8.822 1.386 1.512c6.806 7.436 10.586 17.014 10.586 27.096 0 22.054-18.021 40.076-40.076 40.076z" fill="#2D2D2D"></path></svg>