<svg xmlns="http://www.w3.org/2000/svg" fill="none" viewBox="0 0 368 367"><path d="M358.567 213.716l-4.042-4.159c-.368-.489-.735-.856-1.103-1.346-5.635-7.217-8.575-15.781-8.575-24.956 0-9.297 3.062-18.105 8.82-25.323.123-.122.123-.244.245-.244l.123-.123c1.47-1.712 3.062-3.425 4.655-4.893l.122-.122c.123 0 .123-.123.245-.123.49-.489 1.225-1.101 1.838-2.079 4.042-5.995 6.247-12.968 6.247-20.185 0-13.579-7.595-25.813-19.845-31.93-.123 0-.123-.122-.245-.122-1.593-.856-3.308-1.468-5.023-2.08-14.578-5.504-29.891-8.196-45.571-8.196-1.96 0-3.798 0-5.513.123-.49 0-.857 0-1.347.122-1.103 0-2.083.122-3.308.245l-2.205.244h-.367c-.858.123-1.593.123-2.45.245l-1.103.122h-.245c-.612.123-1.347.123-1.96.245v-.367c.123-.612.123-1.223.245-1.835l.123-.612c.122-.611.122-1.223.245-1.835 0-.489.122-.978.122-1.468 0-.489.123-1.1.123-1.712l.122-1.224c0-.489.123-1.1.123-1.59v-.734-.856-.734-1.59V73.4v-.979-1.835c0-15.536-2.695-30.828-8.208-45.263-.613-1.957-1.348-3.915-2.328-5.75C262.402 7.463 250.152 0 236.676 0c-8.33 0-16.415 2.936-22.908 8.196l-.367.367-4.165 4.037c-.49.367-.858.734-1.348 1.101-7.228 5.628-15.803 8.564-24.991 8.564-9.31 0-18.13-3.059-25.358-8.808-.122-.123-.245-.123-.367-.245l-.123-.122c-1.715-1.468-3.43-3.059-4.9-4.649l-.122-.122c0-.123-.123-.123-.123-.245-.49-.49-1.102-1.223-2.082-1.835-5.391-3.915-12.373-6.117-19.601-6.117-13.72 0-25.971 7.585-31.973 19.818 0 .123-.123.123-.123.245-.857 1.59-1.47 3.303-2.082 5.016-5.513 14.557-8.208 29.849-8.208 45.508 0 1.957 0 3.792.122 5.505 0 .489 0 .978.123 1.345 0 1.101.122 2.08.245 3.303l.245 2.202v.367c.122.857.122 1.59.245 2.447l.122 1.101v.245c.123.611.123 1.345.245 1.957-.612-.122-1.347-.245-1.96-.245h-.245l-1.225-.244c-.857-.123-1.592-.245-2.45-.245h-.49l-2.082-.245c-1.103-.122-2.083-.122-3.185-.244-.49 0-.858 0-1.348-.123-1.715-.122-3.553-.122-5.513-.122-15.68 0-30.993 2.814-45.57 8.196-1.716.49-3.43 1.224-5.024 2.08-.122 0-.122.122-.244.122C7.596 104.228 0 116.461 0 130.04c0 7.218 2.205 14.191 6.248 20.185.612.979 1.347 1.591 1.837 2.08.123 0 .123.122.245.122l.123.123c1.715 1.468 3.185 3.058 4.655 4.771l.122.122c.123.122.123.245.245.245 5.758 7.217 8.82 16.025 8.82 25.323 0 9.175-2.94 17.738-8.575 24.833-.367.49-.735.979-1.102 1.346l-4.043 4.526-.367.367C2.94 220.322 0 228.519 0 236.837c0 13.457 7.473 25.69 19.6 31.807 1.838.979 3.798 1.713 5.758 2.324 14.456 5.383 29.768 8.197 45.326 8.197H78.525c.612 0 1.102-.123 1.592-.123l1.715-.122c.49 0 .98-.122 1.47-.122s.98-.123 1.47-.123c.613 0 1.225-.122 1.838-.244l.612-.123c.613-.122 1.225-.122 1.838-.244h.367v.122c-.122.612-.122 1.223-.245 1.835v.245l-.122 1.101c-.123.856-.245 1.59-.245 2.446v.49l-.245 2.202c-.123 1.101-.123 2.079-.245 3.18 0 .49 0 .979-.123 1.346-.122 1.713-.122 3.548-.122 5.505 0 15.659 2.817 30.95 8.208 45.508.49 1.713 1.225 3.425 2.082 5.016 0 .122.123.122.123.244C104.618 359.538 116.868 367 130.466 367c7.228 0 14.21-2.202 20.213-6.239.98-.612 1.593-1.346 2.083-1.835l.122-.122.123-.123c1.47-1.712 3.062-3.303 4.9-4.771l.122-.122c.123-.122.245-.122.245-.245 7.228-5.749 16.048-8.808 25.358-8.808 9.188 0 17.763 2.936 24.869 8.564.49.367.98.734 1.347 1.101l4.165 4.037.368.367c6.37 5.382 14.455 8.196 22.908 8.196 13.475 0 25.726-7.462 31.851-19.573.98-1.835 1.715-3.793 2.327-5.75 5.391-14.435 8.208-29.727 8.208-45.263v-1.835-.979-1.223-1.591-1.345-.979c0-.489-.122-1.101-.122-1.468l-.123-1.346v-.244c0-.49-.122-.979-.122-1.591 0-.489-.123-.978-.123-1.468 0-.611-.122-1.223-.245-1.835l-.122-.611c-.123-.612-.123-1.224-.245-1.835v-.367h.367c.613.122 1.225.122 1.838.244l.735.123c.612.122 1.225.122 1.715.244.49 0 .98.123 1.47.123s.98.122 1.47.122l1.592.122c.613 0 1.103.123 1.715.123h7.841c15.558 0 30.87-2.692 45.326-8.197 1.96-.611 3.92-1.345 5.757-2.324C360.527 262.16 368 249.927 368 236.47c0-8.318-2.94-16.392-8.208-22.876-.98.245-1.102.122-1.225.122zm-133.528-7.584c.245.122.367.367.612.611l.368.367 7.105 6.606c.245.245.612.612.857.979l1.103 1.101c1.102 1.101 2.082 2.324 3.185 3.548 1.715 1.957 3.43 4.037 4.9 6.116l.735.857c1.715 2.202 3.185 4.404 4.655 6.728.245.367.49.734.735 1.223l.123.123c.245.367.367.611.612.978.123.123.123.245.245.49.123.122.123.244.245.367 0 0 0 .122.123.122.245.367.49.734.735 1.223.245.367.367.612.612 1.101l.613 1.101a93.207 93.207 0 014.287 8.564l.123.367.367.734s0 .122.123.122c.245.489.368.856.49 1.346 0 .122 0 .122.123.244l.612 1.346c1.225 3.058 2.328 5.994 3.185 8.808l.245.612-.612-.123c-2.94-.856-5.881-1.957-8.943-3.18l-1.348-.612c-.122 0-.122 0-.245-.122-.49-.123-.857-.367-1.347-.612h-.123l-.735-.367-.245-.122c-2.94-1.346-5.757-2.814-8.575-4.282l-1.225-.612c-.368-.122-.613-.367-1.103-.611-.367-.245-.735-.49-1.225-.734-.122-.123-.245-.123-.367-.245-.123-.122-.245-.122-.49-.245-.368-.244-.735-.489-1.103-.611l-.122-.123c-.368-.244-.735-.489-1.225-.734-2.205-1.345-4.41-2.936-6.615-4.526l-.98-.734a96.636 96.636 0 01-6.003-4.893c-1.103-.979-2.328-2.08-3.43-3.059l-1.225-1.101c-.245-.244-.613-.611-.98-.856l-6.493-6.851-.122-.122-.368-.367-.612-.612a116.15 116.15 0 016.615-12.111c3.92-3.058 7.963-5.26 12.128-7.217zm11.147-17.494c-.245.122-.367.122-.612.245-.123 0-.245.122-.368.122-.245.122-.612.122-.857.245h-.123c-3.92 1.345-7.84 2.813-11.637 4.526a132.365 132.365 0 00-17.396 9.42 6.55 6.55 0 00-1.837 1.835c-3.553 5.627-6.738 11.377-9.433 17.371-1.715 3.792-3.185 7.707-4.533 11.622 0 .122-.122.244-.122.367 0 .122-.123.244-.123.367l-.122.244c0 .123-.123.245-.123.367 0 .245-.122.367-.245.612v.122c-.857 2.08-3.062 3.426-5.268 3.426-1.715 0-3.43-.857-4.41-2.08-.49-.612-.857-1.223-.98-1.835l-.122-.612c0-.122 0-.244-.123-.244a125.55 125.55 0 00-4.655-11.867v-.122c-2.695-6.117-6.002-12.111-9.678-17.861a6.564 6.564 0 00-1.837-1.835 133.398 133.398 0 00-17.028-9.175 152.426 152.426 0 00-11.638-4.526c-.122 0-.122 0-.245-.122-.122-.123-.367-.123-.49-.123l-.245-.122c-.122 0-.245-.122-.367-.122-.245 0-.368-.123-.613-.245h-.122c-2.083-.856-3.431-3.058-3.431-5.26 0-2.447 1.593-4.771 4.043-5.505l.613-.123c.122 0 .245 0 .245-.122 4.042-1.346 8.085-2.814 11.882-4.649 6.003-2.691 12.006-5.872 17.641-9.419a6.564 6.564 0 001.837-1.835c3.553-5.505 6.738-11.5 9.556-17.616 0-.123.122-.123.122-.245a151.768 151.768 0 004.533-11.622c0-.122 0-.244.122-.244l.123-.612c.735-2.324 2.94-4.037 5.512-4.037 2.328 0 4.411 1.346 5.268 3.425v.123c.123.244.123.367.245.611 0 .123 0 .245.123.367l.122.245c0 .122.123.367.123.489 0 .123 0 .123.122.245a108.697 108.697 0 004.41 11.377c0 .122.123.245.123.245 2.695 5.872 5.757 11.621 9.188 17.004a6.55 6.55 0 001.837 1.835 126.052 126.052 0 0017.886 9.664s.122 0 .122.123a125.984 125.984 0 0011.883 4.648c.122 0 .245 0 .245.123l.612.122c2.328.734 4.043 2.936 4.043 5.505-.245 2.08-1.593 4.159-3.798 5.138zm-46.918 45.63s.122 0 0 0c.122 0 0 0 0 0zm-78.402 12.723c.122-.122.122-.245.122-.367.123-.367.245-.612.49-.979l.245-.611c.123-.245.123-.367.368-.612.245-.367.367-.734.612-1.101l.123-.245c.122-.122.122-.244.245-.367.367-.611.735-1.345.98-1.957 0 0 0-.122.122-.122.245-.49.49-.857.735-1.346 0 0 0-.122.123-.122.857-1.468 1.592-2.936 2.45-4.16 0 0 .122-.122.122-.244 0-.123.123-.245.245-.367 0-.123.123-.123.123-.245.367-.612.735-1.223 1.225-1.835 0 0 0-.122.122-.122.123-.123.245-.245.245-.49 0-.122.123-.122.123-.244.367-.612.735-1.101 1.102-1.591l.123-.122c0-.122.122-.122.122-.245.368-.611.858-1.223 1.225-1.835l.123-.122c.122-.122.245-.245.245-.367.367-.612.857-1.101 1.225-1.713l.367-.489c.49-.612.98-1.223 1.47-1.957l.245-.245c.49-.612.858-1.101 1.348-1.713.122-.122.245-.244.245-.367.49-.611.98-1.223 1.593-1.835.612-.734 1.225-1.345 1.96-2.079.245-.245.49-.612.735-.857l.122-.122 1.47-1.468 1.96-1.957c.735-.734 1.47-1.468 2.205-2.08l.245-.245 1.348-1.223.367-.367.613-.489.49-.49c.122-.122.245-.122.245-.244l.122-.123c.368-.367.735-.611 1.225-.978 4.043 1.957 7.963 4.037 11.638 6.361 2.573 4.037 4.9 8.196 6.86 12.478-.122.122-.245.367-.49.489l-.122.123-.123.122-.122.122-6.493 6.973c-.367.245-.612.612-.98.857l-1.102 1.101c-1.225 1.101-2.328 2.079-3.43 3.18-1.961 1.713-4.043 3.426-6.003 4.894l-.858.734c-2.205 1.712-4.532 3.18-6.737 4.648l-1.103.734-.122.123c-.368.244-.735.489-1.103.611-.122.123-.245.123-.49.245-.122.122-.245.122-.49.245-.367.244-.735.489-1.225.734-.367.244-.612.367-1.103.611l-.98.612a93.437 93.437 0 01-8.575 4.282l-.245.122-.735.367h-.122c-.49.245-.858.367-1.348.612-.122 0-.122 0-.245.122l-1.347.612c-3.063 1.223-6.003 2.324-8.821 3.18l-.612.245.122-.367c.245-.856.49-1.713.735-2.324l.858-2.447c.98-2.569 2.082-5.26 3.308-8.074l.122-.245.368-.734c-.245-.367-.245-.367-.245-.489zm18.743-45.997c-.123 0-.245 0-.245-.123.122 0 .122.123.245.123zm-11.761-68.262c0-.123-.122-.245-.122-.245-.123-.122-.123-.245-.245-.245 0-.122-.123-.122-.123-.244-.735-1.224-1.592-2.569-2.45-4.16 0 0 0-.122-.122-.122-.245-.489-.49-.856-.735-1.346 0 0 0-.122-.123-.122-.367-.612-.735-1.223-.98-1.957 0-.123-.122-.367-.245-.49l-.735-1.468c-.122-.244-.245-.367-.245-.611l-.245-.49c-.122-.244-.245-.611-.49-.856 0-.122-.122-.245-.122-.367s-.123-.122-.123-.245c-.122-.244-.245-.489-.368-.856l-.122-.367a289.65 289.65 0 01-3.308-7.952l-.857-2.446a31.174 31.174 0 00-.858-2.569v-.367l.368.122c.857.245 1.715.489 2.45.734.49.122.98.367 1.47.489l.857.367c2.573.979 5.268 2.08 8.086 3.303l.245.123c.245.122.612.244.857.367.123 0 .123.122.245.122.123.122.245.122.368.122.367.123.612.245.98.49l.612.244c.123.123.368.123.613.245l1.47.734c.122.122.245.122.49.245.612.367 1.225.611 1.96.978 0 0 .122 0 .122.123.49.244.858.489 1.348.734 0 0 .122 0 .122.122 1.471.856 2.941 1.59 4.166 2.447 0 0 .122.122.245.122.122.122.245.122.367.245.123 0 .123.122.245.122.613.367 1.225.734 1.838 1.223 0 0 .122 0 .122.123.123.122.245.244.49.367.123 0 .123.122.245.122.613.367 1.103.734 1.593 1.101.122.122.122.122.245.122h.122c.613.49 1.225.857 1.838 1.346l.122.122c.123.123.245.245.368.245.612.367 1.102.856 1.837 1.346l.368.244c.612.49 1.225.979 1.96 1.468l.245.245c.612.489 1.102.856 1.715 1.346l.367.367c.613.489 1.226.978 1.838 1.59.735.612 1.348 1.223 2.083 1.835.245.245.612.489.857.856l.123.123 1.47 1.468 1.96 1.957c.735.734 1.47 1.468 2.082 2.202l.245.245 1.225 1.345.368.367.49.612.49.489c.122.123.122.245.245.245 0 .122.122.122.122.245.245.367.49.611.858.978-1.96 4.16-4.165 8.197-6.615 11.989a128.195 128.195 0 01-12.006 6.606c-.367-.245-.612-.612-.98-.856l-.122-.123c-.123-.122-.245-.244-.368-.244l-.49-.49-.612-.489-.49-.489-1.225-1.101-.245-.245c-.735-.734-1.47-1.468-2.205-2.08l-1.96-1.957c-.49-.489-.98-.979-1.47-1.59-.245-.245-.49-.612-.858-.857-.612-.734-1.225-1.345-1.837-2.079-.49-.612-1.103-1.224-1.593-1.835a127.16 127.16 0 00-.368-.367c-.49-.49-.857-1.101-1.347-1.591 0 0 0-.122-.123-.122 0-.122-.122-.122-.122-.245l-1.47-1.835-.368-.489c-.367-.612-.857-1.101-1.225-1.59-.122-.123-.245-.245-.245-.367l-.122-.123c-.49-.611-.858-1.223-1.225-1.835 0-.122-.123-.122-.123-.244l-.122-.123c-.368-.489-.735-1.101-1.103-1.59 0-.122-.122-.122-.122-.245a1.678 1.678 0 01-.368-.489l-.122-.122c-.613-.979-.98-1.591-1.348-2.202zm116.133 19.573l-.857.856-6.983 6.484-.122.122-.123.123-.122.122-.49.489c-4.288-2.079-8.453-4.281-12.496-6.85-2.327-3.67-4.41-7.585-6.37-11.622.368-.367.613-.734.98-1.101 0-.122.123-.122.123-.245.122-.122.122-.244.245-.244.122-.123.245-.367.49-.49l.49-.611.49-.49 1.102-1.223.245-.245c.735-.734 1.47-1.468 2.083-2.202l1.96-1.957c.49-.489 1.102-.979 1.592-1.468.245-.245.613-.489.858-.856.735-.612 1.347-1.224 2.082-1.835.613-.49 1.225-1.101 1.838-1.591l.368-.367c.49-.489 1.102-.856 1.592-1.345h.123c.122 0 .122-.123.245-.123l1.837-1.468.49-.367c.613-.489 1.103-.856 1.715-1.223.123-.122.245-.245.368-.245l.122-.122c.613-.489 1.225-.856 1.838-1.223h.122c.123 0 .123-.123.245-.123.49-.367 1.103-.734 1.593-1.101.122 0 .122-.122.245-.122.122-.122.245-.245.49-.367l.122-.122 1.838-1.101c.122 0 .122-.123.245-.123.122-.122.245-.122.367-.244.123 0 .123-.123.245-.123 1.225-.734 2.573-1.59 4.165-2.446 0 0 .123 0 .123-.123.49-.244.858-.489 1.348-.734 0 0 .122 0 .122-.122a14.735 14.735 0 011.96-.979c.123 0 .245-.122.368-.244l.245-.123c.367-.244.735-.367 1.225-.611.122-.123.367-.123.49-.245l.612-.245c.245-.122.613-.244.98-.489.123 0 .245-.122.368-.122.122 0 .122-.123.245-.123.245-.122.49-.244.857-.367l.245-.122a293.172 293.172 0 017.963-3.303l.98-.367c.49-.122.98-.367 1.47-.489.858-.245 1.593-.49 2.573-.857l.245-.122-.123.612c-.857 2.936-1.96 5.872-3.185 8.93l-.612 1.346c0 .122 0 .122-.123.244-.123.49-.368.857-.613 1.346v.122l-.367.734-.123.245c-1.347 2.936-2.817 5.75-4.287 8.563l-.613 1.101c-.245.367-.367.734-.612 1.101s-.49.734-.735 1.224v.122c-.123.122-.123.245-.245.367-.123.122-.123.245-.245.489-.245.367-.368.612-.613.979l-.122.122c-.245.367-.49.734-.735 1.224-1.348 2.202-2.94 4.404-4.533 6.606l-.735.978a115.915 115.915 0 01-4.9 5.995c-.98 1.223-2.083 2.324-3.063 3.425l-1.225 1.101zM107.558 29.238c0-.123.122-.245.122-.367.368-1.224.858-2.325 1.348-3.548 0-.122.122-.245.122-.245 4.166-7.829 12.128-12.722 21.071-12.722 4.778 0 9.31 1.345 13.23 4.037 0 0 0 .122.123.122 1.96 2.202 4.043 4.282 6.37 6.117l.123.122s.122 0 .122.122l.123.123c9.31 7.462 21.07 11.621 33.075 11.621 11.883 0 23.154-3.792 32.464-11.132.612-.49 1.347-.979 1.96-1.59.122-.123.245-.123.245-.245l4.165-4.037c4.165-3.425 9.433-5.26 14.823-5.26 8.943 0 16.905 4.893 20.948 12.845.613 1.223 1.103 2.569 1.593 3.914 0 .123.122.245.122.367 4.9 13.212 7.473 27.036 7.473 41.227V77.682c0 .489 0 .856-.123 1.345l-.122 1.224c0 .489-.123.978-.123 1.468v.244c0 .367-.122.734-.122 1.224 0 .489-.123.978-.123 1.468l-.122.856c0 .49-.123.979-.245 1.59-.123.49-.123.979-.245 1.59l-.123 1.102c0 .122 0 .367-.122.489v.245c0 .367-.123.734-.245 1.1h-.123c-.122 0-.245.123-.367.123l-.245.122h-.245l-1.348.367h-.122l-.613.123c-.367.122-.735.244-1.102.244l-1.47.367c-.123 0-.245.123-.368.123-.367.122-.735.244-.98.367h-.123c-.98.244-1.837.611-2.695.856-.612.245-1.225.367-1.837.612l-.98.367c-2.818.978-5.88 2.202-8.943 3.547l-.245.123c-.367.122-.735.367-1.102.489 0 0-.123 0-.123.122-.122 0-.245.123-.367.123-.368.122-.735.367-1.225.611l-.49.245c-.368.122-.613.367-.858.489-.368.123-.735.367-1.103.49-.122 0-.122.122-.245.122l-.122.122c-.123.123-.245.123-.368.245l-2.205 1.101c-.612.367-1.225.612-1.837.979-1.593.856-3.063 1.712-4.533 2.569a3.726 3.726 0 00-.857.611c-.613.367-1.348.857-1.96 1.224-.368.244-.613.367-.98.611-.613.367-1.348.857-1.96 1.346-.123 0-.123.122-.245.122-.735.49-1.348.979-2.083 1.468-.123.123-.245.245-.368.245l-.122.122c-.613.49-1.225.979-1.96 1.468l-.368.367c-.612.49-1.347 1.101-1.96 1.591-.122 0-.122.122-.245.122-.735.612-1.47 1.223-2.205 1.713l-.122.122c-.735.612-1.47 1.223-2.083 1.835l-.122.122c-.735.612-1.47 1.224-2.083 1.835-.367.367-.735.612-1.102.979-.613.489-1.103 1.101-1.715 1.59l-2.205 2.202c-.735.857-1.593 1.591-2.328 2.447l-.123.122-.367.367c-.123-.244-.123-.489-.245-.611 0 0 0-.123-.123-.123v-.244c-.122-.612-.367-1.101-.49-1.591 0-.122-.122-.244-.122-.367-2.695-6.85-9.31-11.377-16.783-11.377-7.84 0-14.945 5.261-17.273 12.845v.123l-.122.489c-.123.245-.123.489-.245.734l-.246-.245-.122-.122c-.735-.856-1.593-1.59-2.328-2.447l-2.205-2.202c-.49-.489-1.102-.978-1.592-1.468l-.123-.122c-.367-.367-.735-.734-1.102-.979-.735-.611-1.47-1.223-2.083-1.957l-.122-.122c-.735-.612-1.47-1.224-2.083-1.835l-.122-.123c-.735-.611-1.47-1.223-2.205-1.712-.123 0-.123-.123-.245-.123-.613-.489-1.348-1.101-2.083-1.59l-.49-.367c-.612-.489-1.225-.979-1.838-1.346l-.122-.122c-.123-.122-.245-.245-.368-.245-.735-.489-1.347-.978-2.205-1.468l-.122-.122c-.613-.489-1.225-.856-1.96-1.346-.368-.244-.613-.489-.98-.611-.613-.367-1.348-.857-1.96-1.224-.245-.244-.613-.367-.858-.611a49.54 49.54 0 00-4.532-2.569c-.613-.367-1.225-.734-1.715-.979-.735-.367-1.47-.856-2.205-1.223-.123-.123-.245-.123-.368-.245l-.122-.122s-.123 0-.123-.123l-1.103-.489c-.367-.122-.612-.367-.98-.489l-.49-.245c-.367-.245-.735-.367-1.225-.612-.122 0-.245-.122-.367-.122 0 0-.123 0-.123-.122-.367-.123-.735-.367-1.102-.49l-.245-.122c-3.063-1.346-6.003-2.569-9.065-3.67l-.858-.367c-.612-.245-1.225-.367-1.837-.612-.858-.244-1.838-.611-2.696-.856l-.367.367c-.368-.122-.735-.245-.98-.367-.123 0-.245-.122-.368-.122l-1.47-.367c-.367-.123-.735-.245-1.102-.245l-.613-.122h-.122l-1.47-.49h-.245l-.245-.122c-.123 0-.245-.122-.368-.122h-.122c-.123-.734-.245-1.346-.368-2.202 0-.245-.122-.612-.122-.857l-.123-1.223c-.122-.612-.122-1.223-.245-1.835v-.122l-.122-1.101c-.123-.612-.123-1.346-.245-2.08v-.49l-.245-1.957c-.123-.978-.123-1.957-.123-2.936v-.122-1.101c-.122-1.468-.122-3.18-.122-4.893-.123-14.313 2.45-28.26 7.35-41.471zM88.57 265.463c-.49.123-.98.123-1.593.245-.49.122-.98.122-1.592.245l-.735.122c-.49 0-.98.122-1.47.122-.368 0-.735.123-1.225.123h-.245c-.368 0-.858.122-1.225.122l-1.593.122c-.49 0-.857.123-1.347.123H70.317c-14.21 0-28.053-2.447-41.284-7.463-.122 0-.245-.122-.367-.122-1.348-.367-2.695-.856-3.92-1.59-7.595-3.793-12.496-11.867-12.496-20.675 0-5.382 1.838-10.643 5.268-14.802l4.043-4.159.245-.245c.49-.612 1.102-1.223 1.592-1.957 7.228-9.298 11.148-20.552 11.148-32.419 0-11.988-4.165-23.732-11.638-33.03l-.122-.122-.123-.122-.122-.245c-1.838-2.324-3.92-4.404-6.126-6.361 0 0-.122 0-.122-.123-2.695-3.914-4.043-8.441-4.043-13.212 0-8.93 4.9-16.882 12.863-20.919.123 0 .123-.122.245-.122 1.103-.612 2.328-.979 3.553-1.346.122 0 .245-.122.367-.122 13.23-5.016 27.196-7.462 41.406-7.462 1.838 0 3.43 0 5.023.122h1.225c.98 0 1.96.122 2.818.122l2.082.123h.49c.735.122 1.348.122 2.083.244l.98.123h.122c.613.122 1.225.122 1.838.244l1.225.123c.367 0 .612.122.98.122.735.122 1.347.245 2.082.367v.122c0 .123 0 .245.123.367l.123.245c0 .122 0 .122.122.245l.368 1.345v.123l.122.611.368 1.101.367 1.468c0 .123.123.245.123.367l.367 1.101v.123c.245.978.613 1.835.858 2.813l.98 2.692c.98 2.936 2.205 5.872 3.552 8.93l.123.245c.122.367.245.734.49.978 0 0 0 .123.122.123 0 .122.123.244.123.367.122.367.367.734.612 1.223l.245.489c.123.367.368.734.49.979l.613 1.101s0 .122.122.122l.123.123c.122.122.122.244.245.367.367.734.735 1.468 1.225 2.202.367.611.612 1.223.98 1.835a70.415 70.415 0 002.572 4.404c.123.244.368.611.49.856.368.612.858 1.346 1.225 1.957.245.367.368.612.613.979.367.612.857 1.346 1.348 1.957v.123l.122.122.123.122c.49.612.98 1.346 1.347 1.835.123.123.245.245.245.367l.123.123c.49.611.857 1.223 1.347 1.835l.368.611c.49.612.98 1.346 1.592 1.958 0 .122.123.122.123.244.612.734 1.225 1.468 1.715 2.202l.122.123c.613.734 1.225 1.468 1.838 2.079l.122.123c.613.734 1.225 1.468 1.838 2.079.367.367.612.734 1.102 1.101.49.49.98 1.101 1.47 1.591l2.205 2.202c.858.734 1.593 1.59 2.451 2.324l.122.122.123.123.122.122c-.245.122-.49.122-.735.245l-.49.122h-.123c-7.595 2.202-12.862 9.297-12.862 17.249 0 7.462 4.41 13.946 11.392 16.76.123 0 .245.122.368.122.49.122.98.367 1.592.489h.246c.122 0 .122 0 .245.123.245.122.367.122.612.244-.122.123-.245.123-.245.245l-.122.122-.123.123c-.858.734-1.593 1.59-2.45 2.324l-2.205 2.202c-.49.489-.98 1.101-1.47 1.59l-.123.123c-.367.367-.612.734-.98 1.101-.612.734-1.225 1.468-1.96 2.079l-.122.123c-.613.734-1.225 1.468-1.838 2.079l-.122.123c-.613.734-1.225 1.468-1.715 2.202 0 .122-.123.122-.123.244-.49.612-1.102 1.346-1.592 2.08l-.368.489c-.49.612-.857 1.224-1.347 1.835l-.123.123c-.122.122-.245.244-.245.367-.49.611-.98 1.345-1.347 1.957l-.123.122-.122.123v.122c-.491.612-.858 1.223-1.348 1.957-.245.367-.49.612-.613.979-.367.612-.857 1.346-1.225 1.957-.245.245-.367.612-.612.857a49.607 49.607 0 00-2.573 4.526c-.367.612-.735 1.223-.98 1.835l-1.102 2.202c-.123.122-.123.245-.245.367l-.123.122c0 .123-.122.123-.122.245-.123.367-.368.734-.49.979-.123.367-.368.611-.49.978l-.245.367c-.245.367-.368.857-.613 1.224 0 .122-.122.244-.122.367 0 0 0 .122-.123.122-.122.367-.245.734-.49.979l-.122.244c-1.348 3.059-2.573 5.995-3.675 9.053l-.98 2.691c-.245.857-.613 1.835-.858 2.692l-.123.244-.367 1.101c0 .123-.122.367-.122.49-.123.489-.245.978-.368 1.345s-.245.734-.245 1.101l-.122.612v.122L92 263.506c0 .122 0 .122-.123.245l-.122.244c0 .123-.123.245-.123.367v.123c-.367.122-.735.122-.98.244h-.245c-.122 0-.367 0-.49.123l-1.347.611zm171.137 71.932c0 .123-.122.245-.122.367-.368 1.346-.858 2.692-1.593 3.915-4.043 7.952-12.005 12.845-20.948 12.845-5.39 0-10.658-1.835-14.823-5.26l-4.165-4.037c-.123-.123-.245-.123-.245-.245-.613-.489-1.225-1.101-1.96-1.59-9.31-7.218-20.581-11.133-32.464-11.133-12.005 0-23.765 4.16-33.075 11.622l-.123.122s-.122 0-.122.123l-.123.122c-2.327 1.835-4.41 3.915-6.37 6.239-3.92 2.691-8.453 4.037-13.23 4.037-8.943 0-16.906-4.893-20.949-12.723 0-.122-.122-.244-.122-.244-.613-1.101-.98-2.325-1.348-3.548 0-.122-.122-.245-.122-.367-5.023-13.212-7.473-27.158-7.473-41.349 0-1.835 0-3.425.123-5.015v-1.101c0-.979.122-1.958.122-2.814l.123-2.08v-.489c.122-.734.122-1.346.245-2.08l.122-1.101v-.122c.123-.489.123-1.101.245-1.59l.245-1.346c.123-.367.123-.612.123-.979.122-.734.245-1.345.367-2.079.858-.245 1.715-.367 2.573-.612.612-.122 1.225-.367 1.715-.489l.245-.123c.49-.122.857-.244 1.347-.367h.123l1.102-.367.613-.122c3.185-.979 6.37-2.202 9.8-3.548.123 0 .123 0 .245-.122l1.348-.612c.49-.244 1.102-.489 1.592-.734.368-.122.735-.367 1.103-.489l.245-.122a174.196 174.196 0 009.555-4.771l1.103-.612c.612-.367 1.102-.612 1.592-.979.245-.122.49-.367.735-.367.245-.122.49-.367.858-.489l.245-.122.122-.123c.368-.244.858-.489 1.225-.734.49-.244.98-.611 1.47-.978 2.45-1.468 4.9-3.181 7.351-5.138l.98-.734c2.327-1.713 4.532-3.548 6.737-5.505a974.233 974.233 0 003.798-3.426l1.225-1.101c.367-.367.857-.734 1.225-1.101l.122-.122 3.553-3.792c.123.244.245.611.245.856l.123.489v.123c2.205 7.584 9.31 12.845 17.272 12.845 7.473 0 13.966-4.404 16.783-11.377 0-.123.123-.245.123-.367.122-.245.122-.367.245-.612.122-.245.245-.612.245-.979v-.244c.122-.245.122-.49.245-.734l3.675 4.037.123.122c.367.367.857.734 1.225 1.101l1.225 1.223a908.25 908.25 0 003.797 3.426c2.328 2.079 4.533 3.792 6.738 5.505l.98.734c2.45 1.835 4.9 3.547 7.35 5.015.49.367.98.612 1.47.979.368.245.858.489 1.225.734l.123.122.245.123c.245.122.49.367.735.367l.735.367c.49.367 1.102.611 1.592.978l1.225.612a173.51 173.51 0 009.556 4.771l.245.122c.367.123.735.367 1.102.49.49.244 1.103.489 1.593.734l1.347.611c.123 0 .123 0 .245.123 3.43 1.345 6.615 2.446 9.923 3.547l.49.123 1.103.367h.122c.49.122.858.244 1.348.367h.122c.613.122 1.225.367 1.715.489.858.245 1.715.489 2.573.612.122.367.122.734.245 1.101v.122c0 .122 0 .367.122.489l.245 1.224c.123.489.123.978.245 1.468.123.489.123.978.245 1.59l.123.734c.122.489.122.979.122 1.468 0 .367.123.734.123 1.223v.245c0 .489.122.856.122 1.346l.123 1.468c0 .367 0 .856.122 1.223v6.973c0 14.313-2.45 28.137-7.35 41.226zm82.322-79.639c-1.225.612-2.572 1.101-3.92 1.591-.122 0-.245.122-.367.122-13.231 4.893-27.074 7.462-41.284 7.462h-6.86c-.49 0-.858 0-1.47-.122l-1.47-.122c-.368 0-.858-.123-1.225-.123h-.245c-.368 0-.735-.122-1.225-.122-.49 0-.98-.122-1.47-.122l-.858-.123c-.49 0-.98-.122-1.592-.244-.49-.123-.98-.123-1.593-.245l-1.102-.122c-.123 0-.368 0-.49-.123h-.245c-.368 0-.735-.122-.981-.244-.245-.857-.367-1.713-.612-2.569-.123-.612-.368-1.224-.49-1.713l-.123-.367c-.122-.367-.245-.856-.367-1.223v-.123c-.123-.367-.245-.734-.368-.978l-.122-.612c-.98-3.181-2.205-6.484-3.553-9.787 0-.122 0-.122-.122-.244l-.613-1.346c-.245-.489-.49-1.101-.612-1.59-.123-.367-.368-.734-.49-1.101l-.123-.367a172.932 172.932 0 00-4.777-9.542l-.613-1.101c-.367-.612-.612-1.101-.98-1.591-.122-.244-.245-.489-.49-.734-.122-.244-.245-.489-.49-.734l-.122-.244s-.123-.123-.123-.245c-.245-.367-.49-.856-.735-1.223-.367-.49-.612-.979-.98-1.468-1.593-2.447-3.185-4.894-5.145-7.34l-.735-.979c-1.715-2.324-3.553-4.526-5.513-6.728a926.607 926.607 0 00-3.43-3.793l-1.225-1.223-1.102-1.101-.123-.122-4.043-3.67c.245-.123.49-.123.735-.245 0 0 .123 0 .123-.122h.122c.613-.123 1.103-.367 1.593-.49.123 0 .245-.122.368-.122 6.86-2.691 11.392-9.297 11.392-16.76 0-7.829-5.267-14.924-12.863-17.249h-.122l-.49-.122c-.245-.122-.613-.245-.858-.245l3.798-3.547.123-.123 1.225-1.223 1.225-1.223c1.225-1.346 2.327-2.569 3.43-3.793 1.96-2.202 3.797-4.404 5.512-6.728l.735-.979c1.838-2.446 3.553-4.893 5.023-7.217.368-.49.613-.979.98-1.468l.735-1.101.123-.123c0-.122.122-.122.122-.244l.123-.245c.122-.245.245-.489.49-.734l.367-.734c.368-.612.735-1.101.98-1.59l.613-1.101a173.64 173.64 0 004.777-9.542l.123-.245c.122-.367.367-.734.49-1.101.245-.489.49-1.101.612-1.59l.613-1.346c0-.122 0-.122.122-.245 1.348-3.425 2.45-6.606 3.553-9.909l.122-.489c.123-.367.245-.734.368-.979v-.122c.122-.367.245-.856.367-1.223v-.245c.123-.612.368-1.223.49-1.713.245-.856.49-1.712.613-2.569.735-.122 1.348-.244 2.083-.367.245 0 .612-.122.98-.122l1.225-.122c.612-.123 1.225-.123 1.837-.245h.123l.98-.122c.735-.123 1.347-.123 2.082-.245h.49l1.96-.122c.98-.123 1.96-.123 2.94-.123h1.225c1.593-.122 3.185-.122 4.901-.122 14.332 0 28.175 2.569 41.406 7.462.122 0 .245.123.367.123 1.225.367 2.328.856 3.553 1.345.122 0 .122.123.245.123 7.962 4.037 12.863 11.988 12.863 20.919 0 4.771-1.348 9.297-4.043 13.212 0 0-.122 0-.122.122-2.206 1.957-4.288 4.037-6.126 6.361l-.122.123-.123.122-.122.122c-7.473 9.298-11.638 21.042-11.638 33.03 0 11.867 3.798 23.121 11.148 32.419.49.611.98 1.345 1.592 1.957.123.122.123.245.245.245l4.043 4.159c3.43 4.159 5.268 9.42 5.268 14.802.367 8.074-4.533 16.148-12.496 20.185z" fill="#2D2D2D"></path></svg>