<svg xmlns="http://www.w3.org/2000/svg" fill="none" viewBox="0 0 108 107"><path d="M105.231 44.69l-1.186 1.213c-.108.143-.216.25-.324.392a11.62 11.62 0 00-2.516 7.276 11.7 11.7 0 002.588 7.383c.036.036.036.072.072.072l.036.035c.431.5.899.999 1.366 1.427l.036.036c.036 0 .036.035.072.035.144.143.36.321.539.607 1.187 1.747 1.834 3.78 1.834 5.885 0 3.959-2.229 7.525-5.824 9.309-.036 0-.036.035-.072.035-.468.25-.971.428-1.474.607-4.279 1.605-8.773 2.39-13.374 2.39-.576 0-1.115 0-1.618-.036-.144 0-.252 0-.396-.036-.323 0-.611-.036-.97-.071l-.648-.072H83.264c-.251-.035-.467-.035-.718-.071l-.324-.036h-.072c-.18-.035-.396-.035-.575-.071v.107c.036.178.036.357.072.535l.036.178c.036.179.036.357.071.535 0 .143.036.286.036.428 0 .143.036.321.036.5l.036.356c0 .143.036.321.036.464v2.318c0 4.53-.79 8.988-2.408 13.197a9.633 9.633 0 01-.684 1.676C77.01 104.824 73.414 107 69.46 107c-2.445 0-4.818-.856-6.723-2.39l-.108-.107-1.222-1.177c-.144-.107-.252-.214-.396-.321a11.838 11.838 0 00-7.334-2.496c-2.732 0-5.321.891-7.442 2.568-.036.035-.072.035-.108.071l-.036.036c-.503.428-1.007.891-1.438 1.355l-.036.036c0 .035-.036.035-.036.071-.144.143-.323.357-.611.535-1.582 1.141-3.631 1.783-5.752 1.783-4.027 0-7.622-2.211-9.384-5.778 0-.035-.036-.035-.036-.071-.252-.464-.431-.963-.611-1.462-1.618-4.245-2.409-8.703-2.409-13.268 0-.571 0-1.106.036-1.605 0-.143 0-.286.036-.393 0-.32.036-.606.072-.963l.072-.642v-.035-.072c.036-.25.036-.463.072-.713l.036-.321v-.071c.036-.179.036-.393.072-.571-.18.036-.396.071-.576.071h-.072l-.359.072c-.252.035-.467.071-.72.071h-.143l-.611.071c-.324.036-.611.036-.935.072-.144 0-.252 0-.395.035-.504.036-1.043.036-1.618.036a38.71 38.71 0 01-13.374-2.39 7.533 7.533 0 01-1.474-.606c-.036 0-.036-.036-.072-.036C2.229 76.612 0 73.045 0 69.086c0-2.104.647-4.137 1.833-5.885.18-.285.396-.463.54-.606.035 0 .035-.036.071-.036l.036-.035c.504-.428.935-.892 1.366-1.391l.036-.036c.036-.036.036-.071.072-.071a11.702 11.702 0 002.589-7.383c0-2.675-.863-5.172-2.517-7.24-.108-.143-.216-.286-.323-.393l-1.187-1.32a98.6 98.6 0 01-.108-.107C.862 42.764 0 40.375 0 37.95c0-3.923 2.193-7.49 5.752-9.273.54-.285 1.114-.5 1.69-.678a38.312 38.312 0 0113.302-2.39h2.301c.18 0 .323.036.467.036l.503.036c.144 0 .288.036.432.036.144 0 .288.035.431.035.18 0 .36.036.54.072l.18.035c.18.036.359.036.539.072h.107v-.036c-.035-.178-.035-.357-.071-.535v-.071l-.036-.321c-.036-.25-.072-.464-.072-.714v-.071-.071l-.072-.642c-.036-.321-.036-.607-.072-.928 0-.142 0-.285-.036-.392-.036-.5-.036-1.034-.036-1.605 0-4.565.827-9.024 2.409-13.268.144-.5.36-.999.611-1.462 0-.036.036-.036.036-.072C30.703 2.176 34.298 0 38.288 0c2.122 0 4.17.642 5.933 1.819.287.178.467.392.61.535l.037.036.036.035c.431.5.898.963 1.438 1.391l.036.036c.036.036.072.036.072.071 2.12 1.677 4.71 2.568 7.442 2.568 2.696 0 5.213-.856 7.298-2.496.144-.107.288-.214.395-.321l1.223-1.177.108-.107C64.786.82 67.158 0 69.639 0c3.954 0 7.55 2.176 9.347 5.707.288.535.504 1.105.683 1.676a37.472 37.472 0 012.41 13.197v2.318c0 .143-.037.321-.037.428l-.036.392v.072c0 .142-.036.285-.036.463 0 .143-.036.286-.036.428 0 .179-.036.357-.072.535l-.036.179c-.035.178-.035.356-.072.535v.107h.108c.18-.036.36-.036.54-.072l.215-.035c.18-.036.36-.036.504-.072.144 0 .287-.035.431-.035.144 0 .288-.036.431-.036l.468-.036c.18 0 .324-.035.503-.035h2.302c4.565 0 9.06.784 13.301 2.39a9.802 9.802 0 011.69.677c3.559 1.783 5.753 5.35 5.753 9.273 0 2.426-.863 4.78-2.409 6.67-.288-.071-.324-.036-.36-.036zm-39.188 2.212c.072-.036.108-.107.18-.179l.108-.107 2.085-1.926c.072-.071.18-.178.252-.285l.323-.321c.324-.321.612-.678.935-1.034a22.358 22.358 0 001.438-1.784l.216-.25a24.03 24.03 0 001.366-1.961c.072-.107.144-.214.216-.357l.036-.035c.072-.107.108-.179.18-.286.036-.035.036-.071.072-.142.035-.036.035-.072.072-.107 0 0 0-.036.035-.036a3.13 3.13 0 00.216-.357c.072-.107.108-.178.18-.32l.18-.322c.467-.82.898-1.676 1.258-2.496l.036-.107.108-.214s0-.036.036-.036a1.73 1.73 0 00.144-.392c0-.036 0-.036.035-.072l.18-.392c.36-.892.683-1.748.935-2.568l.072-.178-.18.035c-.863.25-1.726.571-2.624.928l-.396.178c-.036 0-.036 0-.072.036-.144.035-.251.107-.395.178h-.036l-.216.107-.072.036c-.863.392-1.69.82-2.516 1.248l-.36.178c-.108.036-.18.107-.323.179a3.177 3.177 0 01-.36.214c-.036.035-.072.035-.108.071-.036.036-.072.036-.144.071a1.46 1.46 0 01-.323.179l-.036.035a3.148 3.148 0 01-.36.214c-.647.393-1.294.856-1.941 1.32l-.288.214a28.27 28.27 0 00-1.761 1.427c-.324.285-.684.606-1.007.891l-.36.321a2.04 2.04 0 01-.287.25l-1.906 1.997-.036.036-.108.107-.18.178a33.77 33.77 0 001.942 3.531c1.15.892 2.337 1.534 3.56 2.105zm3.272 5.1c-.072-.036-.108-.036-.18-.071-.036 0-.072-.036-.108-.036-.071-.036-.18-.036-.251-.071h-.036a39.68 39.68 0 01-3.416-1.32 38.964 38.964 0 01-5.105-2.746 1.919 1.919 0 01-.54-.535c-1.042-1.641-1.976-3.317-2.767-5.065a38.985 38.985 0 01-1.33-3.388c0-.036-.037-.072-.037-.107 0-.036-.035-.072-.035-.107l-.036-.072c0-.035-.036-.071-.036-.107 0-.071-.036-.107-.072-.178v-.036c-.252-.606-.9-.998-1.546-.998a1.72 1.72 0 00-1.294.606c-.144.178-.252.357-.288.535l-.036.178c0 .036 0 .072-.036.072a36.482 36.482 0 01-1.366 3.46v.035c-.791 1.783-1.762 3.531-2.84 5.207a1.917 1.917 0 01-.54.535 39.192 39.192 0 01-4.997 2.675c-1.15.5-2.265.928-3.416 1.32-.035 0-.035 0-.071.036-.036.035-.108.035-.144.035l-.072.036c-.036 0-.072.036-.108.036-.072 0-.108.035-.18.071h-.036c-.61.25-1.006.892-1.006 1.534 0 .713.467 1.39 1.186 1.605l.18.035c.036 0 .072 0 .072.036 1.186.392 2.373.82 3.487 1.355a42.28 42.28 0 015.177 2.747c.216.142.396.32.54.535 1.042 1.605 1.977 3.352 2.804 5.136 0 .035.036.035.036.071a44.031 44.031 0 011.33 3.388c0 .036 0 .072.036.072l.036.178a1.704 1.704 0 001.618 1.177c.683 0 1.294-.392 1.546-.999v-.035c.035-.072.035-.107.072-.179 0-.035 0-.071.035-.107l.036-.071c0-.036.036-.107.036-.143 0-.035 0-.035.036-.071.36-1.106.791-2.211 1.295-3.317 0-.036.035-.071.035-.071a41.264 41.264 0 012.697-4.958c.144-.214.324-.392.54-.535a37.101 37.101 0 015.248-2.818s.036 0 .036-.035c1.115-.5 2.301-.963 3.487-1.356.037 0 .072 0 .072-.035l.18-.036A1.693 1.693 0 0070.43 53.5a1.9 1.9 0 00-1.115-1.498zm-13.77-13.304s.036 0 0 0c.036 0 0 0 0 0zM32.536 34.99c.036.036.036.071.036.107.036.107.072.178.144.285l.072.179c.036.071.036.107.108.178.072.107.108.214.18.321l.035.071c.036.036.036.072.072.107.108.179.216.393.288.571 0 0 0 .036.036.036.072.142.144.25.215.392 0 0 0 .036.036.036.252.428.468.856.72 1.212 0 0 .035.036.035.072 0 .035.036.071.072.107 0 .035.036.035.036.071.108.178.216.357.36.535 0 0 0 .036.036.036.036.035.072.071.072.142 0 .036.036.036.036.072.108.178.215.32.323.463l.036.036c0 .036.036.036.036.071.108.179.252.357.36.535l.036.036c.036.036.072.071.072.107.107.178.251.321.359.5l.108.142c.144.178.288.357.431.57l.072.072c.144.178.252.321.396.5.036.035.072.07.072.106.143.179.287.357.467.535.18.214.36.393.575.607.072.071.144.178.216.25l.036.035.431.428.575.57c.216.215.432.429.648.607l.072.071.395.357.108.107.18.143.144.142c.035.036.071.036.071.072l.036.035c.108.107.216.179.36.286 1.186-.571 2.337-1.177 3.415-1.855a30.075 30.075 0 002.014-3.638c-.036-.036-.072-.107-.144-.143l-.036-.035-.036-.036-.036-.036-1.906-2.033c-.107-.071-.18-.178-.287-.25l-.324-.32c-.36-.321-.683-.607-1.006-.928-.576-.499-1.187-.998-1.762-1.426l-.252-.214c-.647-.5-1.33-.928-1.977-1.356l-.324-.214-.035-.035a1.462 1.462 0 00-.324-.179c-.036-.035-.072-.035-.144-.071-.036-.036-.072-.036-.144-.071a3.156 3.156 0 00-.36-.214c-.107-.072-.179-.107-.323-.179l-.287-.178a27.432 27.432 0 00-2.517-1.248l-.072-.036-.216-.107h-.036c-.144-.071-.251-.107-.395-.178-.036 0-.036 0-.072-.036l-.396-.178a32.954 32.954 0 00-2.588-.928l-.18-.071.036.107c.072.25.144.5.216.678l.252.713c.287.749.61 1.534.97 2.354l.036.071.108.214c-.072.107-.072.107-.072.143zm5.5 13.41c-.035 0-.071 0-.071.036.036 0 .036-.035.072-.035zm-3.45 19.903c0 .035-.037.071-.037.071-.035.036-.035.071-.072.071 0 .036-.035.036-.035.072-.216.356-.468.749-.72 1.212 0 0 0 .036-.035.036-.072.143-.144.25-.216.392 0 0 0 .036-.036.036-.108.178-.216.357-.288.57a.269.269 0 01-.072.143l-.215.428c-.036.072-.072.107-.072.179l-.072.142c-.036.072-.072.179-.144.25 0 .036-.036.071-.036.107 0 .036-.036.036-.036.071a1.735 1.735 0 00-.108.25l-.036.107c-.36.82-.683 1.605-.97 2.318l-.252.714c-.072.25-.144.463-.252.749V76.327l.108-.036c.252-.071.504-.143.72-.214.143-.036.287-.107.43-.143l.252-.107a55.843 55.843 0 002.373-.963l.072-.035c.072-.036.18-.072.252-.107.036 0 .036-.036.072-.036.036-.036.072-.036.108-.036a1.08 1.08 0 00.287-.142l.18-.072c.036-.035.108-.035.18-.071l.431-.214c.036-.036.072-.036.144-.071.18-.107.36-.179.575-.286 0 0 .036 0 .036-.035.144-.072.252-.143.396-.214 0 0 .035 0 .035-.036.432-.25.863-.464 1.223-.713 0 0 .036-.036.072-.036.036-.036.072-.036.108-.071.035 0 .035-.036.072-.036.18-.107.359-.214.539-.357 0 0 .036 0 .036-.035.036-.036.072-.072.144-.107.036 0 .036-.036.071-.036.18-.107.324-.214.468-.321.036-.036.036-.036.072-.036h.036c.18-.142.36-.25.539-.392l.036-.036c.036-.035.072-.071.108-.071.18-.107.323-.25.54-.392l.107-.072c.18-.142.36-.285.575-.428l.072-.071c.18-.143.324-.25.503-.392l.108-.107c.18-.143.36-.286.54-.464.215-.178.395-.357.61-.535.073-.071.18-.143.252-.25l.036-.035.432-.428.575-.571c.216-.214.431-.428.611-.642l.072-.071.36-.393.107-.107.144-.178.144-.143c.036-.035.036-.071.072-.071 0-.036.036-.036.036-.071.072-.107.144-.179.252-.286a30.049 30.049 0 00-1.942-3.495 37.78 37.78 0 00-3.523-1.926c-.108.071-.18.178-.288.25l-.036.035c-.036.036-.072.072-.108.072l-.143.142-.18.143-.144.143-.36.32-.071.072c-.216.214-.432.428-.647.606l-.576.571c-.143.143-.287.285-.431.464-.072.071-.144.178-.252.25-.18.213-.36.392-.54.606-.143.178-.323.356-.466.535l-.108.107c-.144.142-.252.32-.396.463 0 0 0 .036-.036.036 0 .036-.036.036-.036.071l-.431.535-.108.143c-.108.178-.252.321-.36.464-.036.035-.071.071-.071.107l-.036.035c-.144.179-.252.357-.36.535 0 .036-.036.036-.036.072l-.036.035c-.108.143-.215.321-.323.464 0 .036-.036.036-.036.071a.494.494 0 00-.108.143l-.036.036c-.18.285-.288.463-.396.642zm34.082-5.707l-.252-.25-2.049-1.89-.036-.036-.036-.035-.036-.036-.144-.143c-1.258.607-2.48 1.249-3.667 1.998-.683 1.07-1.294 2.211-1.87 3.388.109.107.18.214.288.321 0 .036.036.036.036.071.036.036.036.072.072.072.036.035.072.107.144.142l.144.179.144.142.323.357.072.071c.216.214.431.428.611.642l.575.571c.144.143.324.285.468.428.072.071.18.143.252.25.215.178.395.356.61.535.18.142.36.32.54.463l.108.107c.144.143.323.25.467.393h.036c.036 0 .036.035.072.035l.54.428.143.107c.18.143.324.25.504.357.035.036.071.071.107.071l.036.036c.18.143.36.25.54.357h.036c.035 0 .035.035.072.035.143.107.323.214.467.321.036 0 .036.036.072.036a.495.495 0 00.144.107l.036.036.539.32c.036 0 .036.036.072.036.036.036.072.036.108.072.035 0 .035.035.072.035.359.214.754.464 1.222.714 0 0 .036 0 .036.035.144.072.251.143.395.214 0 0 .036 0 .036.036.18.107.396.214.576.285.035 0 .071.036.107.072l.072.035c.108.072.216.107.36.179.036.035.108.035.144.071l.18.071c.071.036.18.072.287.143.036 0 .072.036.108.036.036 0 .036.035.072.035.072.036.143.072.251.107l.072.036a85.26 85.26 0 002.337.963l.288.107c.144.036.287.107.431.143.252.071.468.142.755.25l.072.035-.036-.178c-.252-.856-.575-1.712-.935-2.604l-.18-.392c0-.036 0-.036-.035-.072-.036-.142-.108-.25-.18-.392v-.036l-.108-.214-.036-.071c-.395-.856-.827-1.676-1.258-2.497l-.18-.32c-.072-.108-.108-.215-.18-.322-.072-.107-.144-.214-.215-.356V68.8c-.036-.036-.036-.071-.072-.107-.036-.036-.036-.071-.072-.143-.072-.107-.108-.178-.18-.285l-.036-.036c-.072-.107-.144-.214-.216-.356-.395-.642-.863-1.284-1.33-1.926l-.216-.286a33.883 33.883 0 00-1.438-1.747c-.287-.357-.61-.678-.898-.999l-.36-.321zm-37.103 35.88c0 .036.036.072.036.108.108.356.252.677.396 1.034 0 .036.036.071.036.071a6.973 6.973 0 006.184 3.71c1.402 0 2.732-.393 3.882-1.177 0 0 0-.036.036-.036a14.688 14.688 0 011.87-1.783l.036-.036s.036 0 .036-.036l.036-.035a15.654 15.654 0 019.707-3.389c3.487 0 6.795 1.106 9.527 3.246.18.143.395.285.575.464.036.035.072.035.072.071l1.223 1.177a6.88 6.88 0 004.35 1.534c2.624 0 4.961-1.427 6.148-3.745.18-.357.323-.75.467-1.142 0-.035.036-.071.036-.107 1.438-3.852 2.193-7.882 2.193-12.02v-.499-.178-.071-.286-.071-.285-.25-.392c0-.143 0-.25-.036-.393l-.036-.356c0-.143-.036-.286-.036-.428v-.072c0-.107-.036-.214-.036-.356 0-.143-.036-.286-.036-.428l-.036-.25c0-.143-.036-.285-.072-.464-.036-.142-.036-.285-.072-.463l-.035-.321c0-.036 0-.107-.037-.143v-.071c0-.107-.035-.214-.071-.321h-.036c-.036 0-.072-.036-.108-.036l-.072-.036h-.072l-.395-.107h-.036l-.18-.035a1.056 1.056 0 00-.324-.072l-.431-.107c-.036 0-.072-.035-.108-.035a2.504 2.504 0 01-.288-.107h-.036c-.287-.072-.539-.179-.79-.25-.18-.071-.36-.107-.54-.178l-.287-.107a36.232 36.232 0 01-2.625-1.035l-.072-.035c-.108-.036-.215-.107-.323-.143 0 0-.036 0-.036-.036-.036 0-.072-.035-.108-.035-.108-.036-.216-.107-.36-.179l-.144-.071c-.107-.036-.18-.107-.251-.143-.108-.035-.216-.107-.324-.142-.036 0-.036-.036-.072-.036l-.036-.036c-.036-.035-.072-.035-.108-.071l-.647-.321c-.18-.107-.36-.178-.539-.285-.467-.25-.899-.5-1.33-.75a1.092 1.092 0 01-.252-.178c-.18-.107-.395-.25-.575-.356-.108-.072-.18-.107-.288-.179a5.483 5.483 0 01-.575-.392c-.036 0-.036-.036-.072-.036-.216-.142-.395-.285-.611-.428-.036-.035-.072-.071-.108-.071l-.036-.036c-.18-.142-.36-.285-.575-.428l-.108-.107c-.18-.142-.395-.32-.575-.463-.036 0-.036-.036-.072-.036-.216-.178-.431-.357-.647-.5l-.036-.035a9.3 9.3 0 01-.611-.535l-.036-.036c-.216-.178-.432-.356-.611-.535-.108-.107-.216-.178-.324-.285-.18-.143-.324-.321-.503-.464l-.647-.642c-.216-.25-.468-.463-.684-.713l-.035-.036-.108-.107c-.036.072-.036.143-.072.179 0 0 0 .035-.036.035v.072c-.036.178-.108.32-.144.463 0 .036-.036.072-.036.107-.79 1.998-2.732 3.317-4.925 3.317a5.346 5.346 0 01-5.07-3.745v-.035l-.036-.143c-.036-.071-.036-.143-.072-.214l-.071.071-.036.036c-.216.25-.468.464-.683.713l-.648.642c-.143.143-.323.286-.467.428l-.036.036c-.108.107-.216.214-.323.285-.216.179-.432.357-.612.571l-.036.036a9.27 9.27 0 00-.61.535l-.037.035a7.9 7.9 0 01-.647.5c-.036 0-.036.035-.072.035-.18.143-.395.321-.611.464l-.144.107c-.18.143-.36.285-.54.392l-.035.036c-.036.036-.072.071-.108.071-.216.143-.395.286-.647.428l-.036.036c-.18.143-.36.25-.575.392-.108.072-.18.143-.288.179-.18.107-.395.25-.575.356-.072.072-.18.107-.252.179-.395.25-.827.499-1.33.749-.18.107-.36.214-.503.285-.216.107-.432.25-.647.357-.036.035-.072.035-.108.071l-.036.036s-.036 0-.036.035l-.324.143c-.108.036-.18.107-.287.143l-.144.071c-.108.071-.216.107-.36.178-.036 0-.072.036-.108.036 0 0-.035 0-.035.036-.108.035-.216.107-.324.142l-.072.036c-.899.392-1.762.749-2.66 1.07l-.252.107c-.18.071-.36.107-.54.178-.251.072-.539.179-.79.25l-.108-.107c-.108.036-.216.071-.288.107-.036 0-.072.036-.108.036l-.431.107c-.108.035-.216.071-.324.071l-.18.036h-.035l-.432.142h-.072l-.072.036c-.035 0-.072.036-.107.036h-.036c-.036.214-.072.392-.108.642 0 .071-.036.178-.036.25l-.036.356c-.036.178-.036.357-.072.535v.036l-.036.32c-.036.179-.036.393-.072.607v.143l-.072.57c-.036.286-.036.571-.036.856v.357c-.036.428-.036.927-.036 1.427-.036 4.173.72 8.239 2.157 12.09zm-5.572-68.872c-.144-.035-.288-.035-.467-.071-.144-.036-.288-.036-.468-.071l-.216-.036c-.143 0-.287-.036-.431-.036-.108 0-.216-.035-.36-.035h-.071c-.108 0-.252-.036-.36-.036l-.467-.036c-.144 0-.252-.035-.396-.035H20.636c-4.17 0-8.233.713-12.116 2.175-.036 0-.072.036-.108.036-.395.107-.79.25-1.15.464-2.23 1.105-3.667 3.46-3.667 6.027 0 1.57.539 3.103 1.546 4.316l1.186 1.213.072.071c.144.178.324.357.467.57a15.245 15.245 0 013.272 9.452c0 3.496-1.222 6.92-3.415 9.63l-.036.036-.036.036-.036.071c-.54.678-1.15 1.284-1.798 1.855 0 0-.036 0-.036.035a6.685 6.685 0 00-1.186 3.852c0 2.604 1.438 4.922 3.775 6.1.036 0 .036.035.072.035.323.178.683.285 1.042.392.036 0 .072.036.108.036 3.883 1.462 7.981 2.176 12.152 2.176.54 0 1.006 0 1.474-.036h.359c.288 0 .576-.036.827-.036l.611-.035h.144c.216-.036.396-.036.611-.072l.288-.035h.036c.18-.036.36-.036.54-.072l.359-.035c.108 0 .18-.036.288-.036.215-.036.395-.071.61-.107v-.036c0-.035 0-.071.037-.107l.036-.071c0-.036 0-.036.036-.071l.107-.393v-.035l.036-.179.108-.32.108-.429c0-.035.036-.071.036-.107l.108-.32v-.036c.072-.286.18-.535.252-.82l.287-.785c.288-.856.647-1.712 1.043-2.604l.036-.071c.036-.107.072-.214.144-.286 0 0 0-.035.035-.035 0-.036.036-.072.036-.107.036-.107.108-.214.18-.357l.072-.143c.036-.107.108-.214.144-.285l.18-.321s0-.036.036-.036l.035-.035c.037-.036.037-.072.072-.107.108-.214.216-.428.36-.642.108-.179.18-.357.288-.535.251-.464.503-.892.755-1.284.036-.072.107-.179.143-.25.108-.178.252-.392.36-.57.072-.108.108-.179.18-.286.108-.178.251-.392.395-.57v-.036l.036-.036.036-.036c.144-.178.288-.392.396-.535.035-.035.071-.071.071-.107l.036-.035c.144-.179.252-.357.396-.535l.108-.179c.143-.178.287-.392.467-.57 0-.036.036-.036.036-.072.18-.214.36-.428.503-.642l.036-.035c.18-.214.36-.428.54-.607l.035-.035c.18-.214.36-.428.54-.607.108-.107.18-.214.323-.32.144-.143.288-.322.432-.464l.647-.642c.252-.214.467-.464.719-.678l.036-.036.036-.035.036-.036c-.072-.036-.144-.036-.216-.071l-.144-.036h-.036a5.249 5.249 0 01-3.775-5.029c0-2.176 1.295-4.066 3.344-4.886.036 0 .072-.036.108-.036.144-.036.287-.107.467-.143h.072c.036 0 .036 0 .072-.035.072-.036.108-.036.18-.072-.036-.035-.072-.035-.072-.071l-.036-.036-.036-.035c-.252-.214-.467-.464-.72-.678l-.646-.642c-.144-.143-.288-.321-.432-.464l-.036-.035c-.108-.107-.18-.214-.287-.321a4.617 4.617 0 00-.575-.607l-.036-.035c-.18-.214-.36-.428-.54-.607l-.036-.035c-.18-.214-.36-.428-.503-.642 0-.036-.036-.036-.036-.072-.144-.178-.324-.392-.467-.606l-.108-.143c-.144-.178-.252-.356-.396-.535l-.036-.035c-.036-.036-.072-.072-.072-.107a5.46 5.46 0 01-.395-.571l-.036-.036-.036-.035v-.036c-.144-.178-.252-.357-.395-.57-.072-.108-.144-.179-.18-.286-.108-.178-.252-.392-.36-.57-.072-.072-.107-.179-.18-.25-.251-.393-.503-.82-.754-1.32-.108-.178-.216-.357-.288-.535l-.324-.642c-.035-.036-.035-.071-.072-.107l-.035-.036c0-.035-.036-.035-.036-.071-.036-.107-.108-.214-.144-.285-.036-.107-.108-.179-.144-.286l-.072-.107c-.072-.107-.108-.25-.18-.356 0-.036-.036-.072-.036-.107 0 0 0-.036-.036-.036-.035-.107-.072-.214-.143-.285l-.036-.072a40.7 40.7 0 01-1.079-2.639l-.288-.785c-.071-.25-.18-.535-.251-.784l-.036-.072-.108-.32c0-.036-.036-.108-.036-.143-.036-.143-.072-.286-.108-.393-.036-.107-.072-.214-.072-.32l-.036-.179v-.036L27 30.174c0-.036 0-.036-.036-.071l-.036-.072c0-.035-.036-.071-.036-.107v-.035c-.108-.036-.216-.036-.288-.072h-.072c-.036 0-.108 0-.144-.035l-.395-.179zM76.218 8.631c0-.035-.036-.071-.036-.107a4.493 4.493 0 00-.467-1.141c-1.187-2.318-3.524-3.745-6.148-3.745a6.88 6.88 0 00-4.35 1.534l-1.223 1.177c-.036.035-.072.035-.072.071-.18.143-.36.321-.575.464a15.525 15.525 0 01-9.527 3.245 15.656 15.656 0 01-9.707-3.388l-.036-.036s-.036 0-.036-.035l-.036-.036a12.82 12.82 0 01-1.87-1.819c-1.15-.785-2.48-1.177-3.883-1.177-2.624 0-4.96 1.427-6.147 3.71 0 .035-.036.07-.036.07-.18.322-.288.678-.396 1.035 0 .036-.036.071-.036.107-1.474 3.852-2.193 7.918-2.193 12.055 0 .535 0 .999.036 1.463V22.399c0 .285.036.57.036.82l.036.606v.143c.036.214.036.392.072.606l.036.321v.036c.036.143.036.321.072.464l.072.392c.036.107.036.178.036.285.036.214.072.393.108.607.251.071.503.107.755.178.18.036.36.107.503.143l.072.035c.144.036.252.072.395.107h.036l.324.107.18.036c.934.285 1.87.642 2.876 1.034.036 0 .036 0 .072.036l.395.178c.144.072.324.143.468.214.107.036.215.107.323.143l.072.036c.935.428 1.87.891 2.804 1.39l.324.179c.18.107.323.178.467.285.072.036.144.107.216.107.072.036.144.107.252.143l.071.036.036.035c.108.072.252.143.36.214.144.072.288.179.431.286.72.428 1.438.927 2.157 1.498l.288.214c.683.499 1.33 1.034 1.977 1.605.36.32.72.642 1.115.998l.36.321c.107.107.251.214.359.321l.036.036 1.043 1.106a.659.659 0 00.071-.25l.036-.143v-.035c.648-2.212 2.733-3.745 5.07-3.745 2.193 0 4.098 1.284 4.925 3.317 0 .035.036.071.036.107.036.071.036.107.072.178a.667.667 0 01.072.285v.072c.036.071.036.142.072.214l1.078-1.177.036-.036c.108-.107.252-.214.36-.321l.36-.357c.395-.356.754-.677 1.114-.998a35.701 35.701 0 011.977-1.605l.288-.214a25.57 25.57 0 012.157-1.463c.144-.107.288-.178.431-.285.108-.071.252-.143.36-.214l.036-.036.072-.035c.072-.036.144-.107.215-.107l.216-.107c.144-.107.324-.179.468-.286l.36-.178c.934-.5 1.869-.963 2.803-1.391l.072-.036c.108-.035.216-.107.324-.142.144-.072.323-.143.467-.214l.396-.179c.036 0 .036 0 .072-.035a57.605 57.605 0 012.912-1.035l.144-.035.323-.107h.036c.144-.036.252-.072.395-.107h.036c.18-.036.36-.107.504-.143.251-.071.503-.143.755-.178.036-.107.036-.214.072-.321v-.036c0-.036 0-.107.036-.143l.072-.356c.035-.143.035-.286.071-.428.036-.143.036-.286.072-.464l.036-.214c.036-.143.036-.285.036-.428 0-.107.036-.214.036-.357v-.071c0-.143.036-.25.036-.392l.036-.428c0-.107 0-.25.036-.357v-.178-.393-.071-.285-.072-.285-.071-.214-.464c0-4.173-.719-8.203-2.157-12.02zm24.16 23.22a11.07 11.07 0 00-1.15-.464c-.037 0-.073-.036-.109-.036a34.985 34.985 0 00-12.115-2.176H84.99c-.144 0-.251 0-.431.036l-.432.036c-.108 0-.251.035-.36.035h-.071c-.108 0-.216.036-.36.036-.143 0-.287.036-.431.036l-.252.035c-.144 0-.287.036-.467.072-.144.035-.288.035-.467.071l-.324.036c-.036 0-.108 0-.144.035h-.072a.68.68 0 00-.287.072c-.072.25-.108.499-.18.749-.036.178-.108.356-.144.499l-.036.107c-.036.107-.072.25-.108.357v.035c-.036.107-.072.214-.108.286l-.035.178a34.57 34.57 0 01-1.043 2.853c0 .036 0 .036-.036.072l-.18.392a2.461 2.461 0 00-.18.464c-.036.107-.108.214-.143.32l-.036.108a50.43 50.43 0 01-1.403 2.782l-.18.32c-.107.179-.179.322-.287.464a.743.743 0 01-.144.214.743.743 0 01-.144.214l-.035.072s-.036.035-.036.071c-.072.107-.144.25-.216.357-.108.142-.18.285-.288.428-.467.713-.934 1.426-1.51 2.14l-.215.285a27.581 27.581 0 01-1.618 1.962c-.324.356-.647.713-1.007 1.105l-.36.357-.323.321-.036.036-1.186 1.07c.072.035.143.035.215.071 0 0 .036 0 .036.036h.036c.18.035.324.107.468.142.036 0 .071.036.107.036a5.234 5.234 0 013.344 4.886c0 2.283-1.546 4.352-3.775 5.03h-.036l-.144.035a.67.67 0 01-.251.071l1.114 1.035.036.035.36.357.36.357c.359.392.682.749 1.006 1.105a27.58 27.58 0 011.618 1.962l.215.285a32.44 32.44 0 011.474 2.105c.108.142.18.285.288.428l.216.32.036.036c0 .036.036.036.036.072l.036.071a.745.745 0 00.143.214l.108.214c.108.178.216.321.288.464l.18.32c.503.928.97 1.855 1.402 2.783l.036.071c.036.107.108.214.144.321.071.143.143.321.18.464l.179.392c0 .036 0 .036.036.071a56.74 56.74 0 011.043 2.89l.035.142c.037.107.072.214.108.285v.036c.036.107.072.25.108.357v.071c.036.178.108.357.144.5.072.249.144.499.18.748.215.036.395.072.611.107.072 0 .18.036.288.036l.36.036c.179.035.359.035.538.071h.036l.288.036c.216.035.395.035.611.071h.144l.575.036c.288.035.575.035.863.035h.36c.467.036.934.036 1.438.036 4.206 0 8.269-.749 12.151-2.176.036 0 .072-.035.108-.035.36-.107.683-.25 1.043-.393.036 0 .036-.035.072-.035 2.337-1.177 3.775-3.496 3.775-6.1 0-1.39-.396-2.71-1.187-3.851 0 0-.036 0-.036-.036a14.652 14.652 0 01-1.797-1.855l-.036-.035-.036-.036-.036-.036a15.377 15.377 0 01-3.416-9.63c0-3.46 1.115-6.74 3.272-9.451.144-.179.288-.393.468-.571.035-.036.035-.071.071-.071l1.187-1.213a6.758 6.758 0 001.546-4.316c.108-2.354-1.33-4.708-3.667-5.885z" fill="url(#paint0_linear)"></path><defs><linearGradient id="paint0_linear" x1="-12.103" y1="110.347" x2="88.335" y2="22.52" gradientUnits="userSpaceOnUse"><stop stop-color="#A4B699"></stop><stop offset=".354" stop-color="#4D5748"></stop><stop offset=".651" stop-color="#A4B699"></stop><stop offset=".651" stop-color="#4D5748"></stop><stop offset=".87" stop-color="#A4B699"></stop><stop offset="1" stop-color="#4D5748"></stop></linearGradient></defs></svg>