<svg xmlns="http://www.w3.org/2000/svg" xmlns:xlink="http://www.w3.org/1999/xlink" fill="none" viewBox="0 0 25 21" class="styles__Svg-sc-1wi4zzj-0"><path d="M24.55 13.829h-.653l-.026.11c-.574 2.507-2.428 5.454-5.822 5.454-2.611 0-4.23-1.57-4.23-9.338 0-7.796 1.54-9.339 4.23-9.339 2.715 0 4.256 1.433 5.822 5.455l.026.082h.653l.392-4.49-.053-.055C23.14.193 20.451 0 18.05 0c-1.723 0-3.29.44-4.7 1.295l-.052.027-.052-.027C12.853 1.075 10.634 0 6.535 0 2.384 0 1.052 2.121 1.052 2.121.19 3.333-.149 4.518.06 5.702c.287 1.653 1.619 3.25 3.942 4.793l3.995 2.673c1.932 1.487 2.22 3.36 1.854 4.517-.314 1.047-1.15 1.68-2.246 1.68-4.412 0-5.9-4.38-6.527-6.252L1 12.865H.347v5.481l.052.028c.079.083 2.193 1.736 7.206 1.736 2.716 0 4.23-.91 5.013-1.68l.052-.056.079.055c1.514 1.102 3.342 1.68 5.3 1.68 2.61 0 4.778-.303 6.814-1.735l.053-.055-.366-4.49zM11.156 3.223C10.06 4.6 9.302 6.336 9.041 8.237l-.026.165-2.82-1.983C4.263 5.095 3.898 3.47 4.211 2.369 4.498 1.322 5.412.69 6.587.69c1.854 0 3.394.799 4.595 2.369l.053.082-.079.083z" fill="#fff"></path></svg>