<svg xmlns="http://www.w3.org/2000/svg" xmlns:xlink="http://www.w3.org/1999/xlink" fill="none" viewBox="0 0 609 83" class="styles__Svg-sc-1wi4zzj-0"><path d="M32.821 47.761l-13.863-9.31c-5.345-3.622-7.683-8.277-6.347-12.76 1.002-3.794 4.51-6.208 8.518-6.208 13.864 0 17.872 10.863 19.042 17.415l.167.518h2.505V21.208l-.334-.173c-.334-.172-7.516-4.31-21.38-4.31-13.195 0-17.538 6.897-17.705 7.241C.92 27.76-.084 31.553.584 35.346 1.588 40.52 5.764 45.693 13.28 50.52l13.696 9.139c5.846 4.31 7.183 10.345 5.846 14.484-1.169 3.793-4.342 6.035-8.685 6.035-13.864 0-18.54-11.208-20.21-20.52l-.168-.517H1.253V77.42l.334.172c.334.173 7.182 5.345 22.549 5.345 13.863 0 18.039-7.414 18.206-7.586 2.339-3.794 3.174-7.587 2.505-11.725-1.169-5.863-5.345-11.208-12.026-15.864zM96.288 3.104L86.1 0 69.564 16.036h4.342L96.288 3.104zM83.434 16.554c-20.544 0-29.73 16.725-29.73 33.45 0 19.83 11.691 32.59 29.73 32.59 18.04 0 29.732-12.76 29.732-32.59 0-16.552-9.187-33.45-29.732-33.45zm0 2.759c7.85 0 15.701 3.62 15.701 30.692 0 24.656-6.347 29.83-15.7 29.83-9.521 0-16.035-5.001-16.035-29.83.167-26.9 8.184-30.693 16.034-30.693zM161.769 19.484l.167.69h.668c7.015 0 10.857 7.069 10.857 20.346v22.588l-35.077-45.521-.167-.345h-19.709v2.759H120.011c2.004 0 4.343.172 9.02 6.207l3.34 4.311v27.588c0 13.45-4.175 20.519-12.026 20.519h-.668v2.759h27.059v-2.759h-.668c-4.51 0-7.851-2.931-9.521-8.621-1.503-4.656-1.336-10.001-1.336-12.07V33.968l36.078 47.59.167.344h4.677V40.52c0-3.104 0-12.587 4.51-17.243 1.837-1.897 4.343-2.931 7.349-2.931h.668v-2.759h-26.891v1.897zM195.167 20.174h.668c4.009 0 6.013 2.241 6.013 6.897V71.04c0 5.172-2.338 8.104-6.013 8.104h-.668v2.758h25.556v-2.758h-.668c-3.675 0-6.014-3.104-6.014-8.104V27.07c0-5.69 3.341-6.896 6.014-6.896h.668v-2.759h-25.556v2.759zM278.024 72.591c0-.172-6.013-15.69-21.713-54.831l-.167-.345h-2.005l-15.033 41.21c-7.683 20.174-9.854 20.346-12.36 20.346h-.668v2.76h21.714v-2.76h-.668c-3.341.173-5.679-.69-7.015-2.586-1.671-2.587-1.671-6.897.334-12.932h20.544l2.673 6.725c1.503 3.62 1.837 6.552 1.002 7.759-.501.69-1.169 1.034-2.338 1.034h-.669v2.76h23.552v-2.76h-1.169c-1.838 0-3.508-.172-6.014-6.38zm-36.746-11.897l9.019-25.174 9.688 25.174h-18.707zM364.879 61.728l-.167.517c-1.67 12.07-10.857 17.588-18.54 17.588-7.85 0-16.035-3.621-16.035-30.175 0-26.554 8.185-30.175 16.035-30.175 9.354 0 15.367 5.69 18.54 17.588l.167.517h2.506l1.169-15-.334-.173c-5.512-4.656-12.861-5.69-22.048-5.69-18.373 0-30.734 13.276-30.734 32.933s12.361 32.933 30.734 32.933c8.686 0 15.033-.862 22.048-5.69l.334-.172-1.169-15.001h-2.506zM406.298 16.554c-20.545 0-29.732 16.725-29.732 33.45 0 19.83 11.692 32.59 29.732 32.59 18.039 0 29.731-12.76 29.731-32.59 0-16.552-9.187-33.45-29.731-33.45zm0 2.759c7.85 0 15.7 3.62 15.7 30.692 0 24.656-6.347 29.83-15.7 29.83-9.521 0-16.035-5.001-16.035-29.83 0-26.9 8.184-30.693 16.035-30.693zM476.118 47.761l-13.864-9.31c-5.345-3.622-7.683-8.277-6.347-12.76 1.002-3.794 4.51-6.208 8.519-6.208 13.863 0 17.872 10.863 19.041 17.415l.167.518h2.506V21.208l-.334-.173c-.335-.172-7.517-4.31-21.38-4.31-13.196 0-17.538 6.897-17.705 7.241-2.506 3.794-3.508 7.587-2.84 11.38 1.002 5.174 5.178 10.346 12.694 15.174l13.697 9.139c5.846 4.31 7.182 10.345 5.846 14.484-1.169 3.793-4.343 6.035-8.686 6.035-13.863 0-18.54-11.208-20.21-20.52l-.167-.517h-2.506V77.42l.334.172c.334.173 7.182 5.345 22.549 5.345 13.864 0 18.039-7.414 18.206-7.586 2.339-3.794 3.174-7.587 2.506-11.725-1.169-5.863-5.345-11.208-12.026-15.864zM551.617 17.415h-56.456v18.277h2.673v-.69c.501-14.483 15.199-14.828 16.87-14.828h2.672v51.21c0 4.829-2.171 7.76-6.18 7.76h-.668v2.758h25.555v-2.758h-.668c-3.841 0-6.18-2.76-6.18-7.76v-51.21h2.673s4.342 0 8.518 2.069c5.345 2.414 8.185 6.897 8.352 12.932v.69h2.672v-18.45h.167zM607.24 78.971c-2.004-.172-3.674-.172-6.013-6.38 0-.172-6.013-15.69-21.714-54.831l-.167-.345h-2.004l-15.033 41.21c-7.683 20.174-9.855 20.346-12.36 20.346h-.668v2.76h21.714v-2.76h-.668c-3.341.173-5.679-.69-7.016-2.586-1.67-2.587-1.67-6.897.334-12.932h20.545l2.673 6.725c1.503 3.62 1.837 6.552 1.002 7.759-.501.69-1.169 1.034-2.339 1.034h-.668v2.76h23.552v-2.76h-1.17zm-42.927-18.277l9.02-25.174 9.688 25.174h-18.708z" fill="#fff"></path></svg>